<svg width="1072" height="606" viewBox="0 0 1072 606" fill="none" xmlns="http://www.w3.org/2000/svg">
<path d="M370.098 317.11C359.616 249.878 336.198 244.017 318.19 210.081C301.796 179.213 288.575 128.713 334.842 92.6105C406.71 36.4855 494.851 93.9157 494.851 93.9157C494.851 93.9157 634.521 170.924 658.929 174.84C683.337 178.756 743.002 217.913 817.582 170.924C892.163 123.936 955.896 127.852 976.236 163.093C996.576 198.334 950.472 300.142 939.623 321.026C928.775 341.91 945.047 407.172 962.676 433.276C980.304 459.381 1035.9 540.305 916.571 537.695C797.242 535.084 439.255 539 439.255 539C439.255 539 310.745 536.69 333.486 416.308C352.47 315.805 374.166 343.215 370.098 317.11Z" fill="#F8F8FF"/>
<path d="M416.202 307.974C431.181 307.974 443.323 296.286 443.323 281.869C443.323 267.452 431.181 255.765 416.202 255.765C401.224 255.765 389.082 267.452 389.082 281.869C389.082 296.286 401.224 307.974 416.202 307.974Z" fill="#BAC5F4"/>
<path d="M370.776 331.468C380.886 331.468 389.082 323.579 389.082 313.847C389.082 304.116 380.886 296.227 370.776 296.227C360.666 296.227 352.47 304.116 352.47 313.847C352.47 323.579 360.666 331.468 370.776 331.468Z" fill="#BAC5F4"/>
<path d="M373.488 283.174C379.105 283.174 383.658 278.792 383.658 273.385C383.658 267.979 379.105 263.596 373.488 263.596C367.871 263.596 363.318 267.979 363.318 273.385C363.318 278.792 367.871 283.174 373.488 283.174Z" fill="#BAC5F4"/>
<path d="M974.88 484.18C989.858 484.18 1002 472.493 1002 458.076C1002 443.658 989.858 431.971 974.88 431.971C959.902 431.971 947.759 443.658 947.759 458.076C947.759 472.493 959.902 484.18 974.88 484.18Z" fill="#BAC5F4"/>
<path d="M323.316 159.177C328.932 159.177 333.486 154.795 333.486 149.388C333.486 143.982 328.932 139.599 323.316 139.599C317.699 139.599 313.145 143.982 313.145 149.388C313.145 154.795 317.699 159.177 323.316 159.177Z" fill="#BAC5F4"/>
<path d="M492.817 502.453C519.403 502.453 540.956 481.708 540.956 456.118C540.956 430.527 519.403 409.782 492.817 409.782C466.231 409.782 444.679 430.527 444.679 456.118C444.679 481.708 466.231 502.453 492.817 502.453Z" fill="#E1E6FB"/>
<path d="M810.802 524.642C828.776 524.642 843.347 510.617 843.347 493.317C843.347 476.016 828.776 461.991 810.802 461.991C792.829 461.991 778.258 476.016 778.258 493.317C778.258 510.617 792.829 524.642 810.802 524.642Z" fill="#E1E6FB"/>
<path d="M935.555 348.436C945.291 348.436 953.184 340.839 953.184 331.468C953.184 322.097 945.291 314.5 935.555 314.5C925.82 314.5 917.927 322.097 917.927 331.468C917.927 340.839 925.82 348.436 935.555 348.436Z" fill="#E1E6FB"/>
<path d="M804.022 212.692C823.494 212.692 839.279 197.498 839.279 178.756C839.279 160.013 823.494 144.82 804.022 144.82C784.551 144.82 768.766 160.013 768.766 178.756C768.766 197.498 784.551 212.692 804.022 212.692Z" fill="#E1E6FB"/>
<path d="M480.613 104.358C489.974 104.358 497.563 97.053 497.563 88.0422C497.563 79.0315 489.974 71.7268 480.613 71.7268C471.252 71.7268 463.663 79.0315 463.663 88.0422C463.663 97.053 471.252 104.358 480.613 104.358Z" fill="#E1E6FB"/>
<path d="M426.373 429.36C435.734 429.36 443.323 422.056 443.323 413.045C443.323 404.034 435.734 396.73 426.373 396.73C417.011 396.73 409.422 404.034 409.422 413.045C409.422 422.056 417.011 429.36 426.373 429.36Z" fill="#E1E6FB"/>
<path d="M972.846 240.102C982.207 240.102 989.796 232.797 989.796 223.786C989.796 214.776 982.207 207.471 972.846 207.471C963.484 207.471 955.896 214.776 955.896 223.786C955.896 232.797 963.484 240.102 972.846 240.102Z" fill="#BAC5F4"/>
<path d="M945.725 518.116C955.836 518.116 964.032 510.227 964.032 500.496C964.032 490.764 955.836 482.875 945.725 482.875C935.615 482.875 927.419 490.764 927.419 500.496C927.419 510.227 935.615 518.116 945.725 518.116Z" fill="#BAC5F4"/>
<path d="M986.406 519.421C992.023 519.421 996.576 515.039 996.576 509.632C996.576 504.226 992.023 499.843 986.406 499.843C980.789 499.843 976.236 504.226 976.236 509.632C976.236 515.039 980.789 519.421 986.406 519.421Z" fill="#BAC5F4"/>
<g clip-path="url(#clip0)">
<path d="M1072 508.025H460.611V509.238H1072V508.025Z" fill="#3F3D56"/>
<path d="M849.087 432.764C849.087 432.764 849.087 474.142 858.664 484.996C858.664 484.996 860.717 490.422 861.401 492.457C861.783 493.616 862.24 494.749 862.769 495.849V498.563C862.769 498.563 881.241 496.528 883.293 491.779L879.872 487.709C879.872 487.709 879.188 487.031 879.872 484.996C879.989 484.774 880.044 484.525 880.031 484.276C880.018 484.026 879.937 483.784 879.797 483.576C879.657 483.368 879.463 483.201 879.236 483.092C879.008 482.984 878.755 482.939 878.504 482.961L873.715 472.107L874.399 427.337L870.979 365.608L841.561 364.251L849.087 432.764Z" fill="#2F2E41"/>
<path d="M864.137 494.492C864.137 494.492 859.349 508.738 864.137 509.416C868.926 510.094 910.658 510.773 909.974 505.346C909.29 499.919 895.607 500.598 895.607 500.598L881.241 491.779L864.137 494.492Z" fill="#2F2E41"/>
<path d="M821.722 365.608C821.722 365.608 820.354 374.426 825.827 383.923C831.3 393.42 827.879 425.302 827.879 425.302L779.306 467.359C779.306 467.359 788.884 483.639 792.304 482.961C795.725 482.282 849.771 438.869 849.771 438.869L870.979 368.321L821.722 365.608Z" fill="#2F2E41"/>
<path d="M779.974 465.562C779.974 465.562 765.275 469.177 767.261 473.551C769.247 477.925 791.01 513.238 795.267 509.759C799.523 506.281 791.62 495.185 791.62 495.185L791.441 478.433L779.974 465.562Z" fill="#2F2E41"/>
<path d="M848.403 255.038C857.093 255.038 864.137 248.053 864.137 239.436C864.137 230.82 857.093 223.835 848.403 223.835C839.712 223.835 832.668 230.82 832.668 239.436C832.668 248.053 839.712 255.038 848.403 255.038Z" fill="#FFB8B8"/>
<path d="M836.022 244.941L836.718 265.018L849.958 270.205C849.958 270.205 851.256 249.648 853.089 248.508C854.922 247.368 836.022 244.941 836.022 244.941Z" fill="#FFB8B8"/>
<path d="M853.191 272.675C853.191 272.675 834.72 254.36 829.931 255.038C825.142 255.717 825.142 257.752 825.142 259.108C825.142 260.465 826.511 261.143 825.142 261.822C823.774 262.5 822.406 261.822 822.406 263.857C822.406 265.892 810.092 286.242 814.196 308.627C818.301 331.012 823.09 341.866 821.038 354.076C818.985 366.286 820.354 368.999 820.354 368.999C820.354 368.999 871.663 373.07 872.347 368.321C873.031 363.573 870.295 366.286 873.715 362.894C877.136 359.503 875.768 359.503 875.768 357.468C875.768 355.433 860.717 272.675 853.191 272.675Z" fill="#575A89"/>
<path d="M843.614 364.929C843.614 364.929 851.823 384.601 857.98 379.853C864.137 375.105 855.244 358.824 855.244 358.824L843.614 364.929Z" fill="#FFB8B8"/>
<path d="M823.774 274.032C823.774 274.032 807.701 275.856 813.685 305.13C819.669 334.404 842.93 368.321 842.93 368.321L858.664 360.859L838.141 320.837L842.93 295.739C842.93 295.739 845.666 271.997 823.774 274.032Z" fill="#575A89"/>
<path opacity="0.2" d="M837.798 321.176L860.375 358.485L858.322 360.52L837.798 321.176Z" fill="black"/>
<path opacity="0.2" d="M825.849 338.563L843.956 367.982H837.798L825.849 338.563Z" fill="black"/>
<path d="M841.281 248.812C842.555 248.144 844.034 248.006 845.413 247.591C850.346 246.106 853.65 240.577 852.595 235.573C852.401 234.931 852.313 234.262 852.336 233.593C852.521 232.111 854.05 231.154 855.516 230.815C856.983 230.475 858.543 230.525 859.945 229.979C862.109 229.136 863.546 226.931 863.858 224.646C864.082 222.333 863.562 220.009 862.374 218.007L861.844 219.518C861.036 218.84 860.437 217.951 860.113 216.951C859.511 217.052 858.945 217.304 858.47 217.683C857.994 218.062 857.625 218.556 857.397 219.118C856.546 219.615 856.424 217.573 855.485 217.272C855.072 217.221 854.654 217.323 854.313 217.559C852.42 218.434 850.222 217.686 848.192 217.201C844.677 216.365 841.012 216.36 837.495 217.188C835.159 217.741 832.846 218.703 831.174 220.413C829.866 221.885 828.861 223.597 828.217 225.452C826.423 229.927 825.239 234.769 825.831 239.548C826.324 243.46 827.974 247.138 830.573 250.121C831.927 251.667 836.345 257.064 838.767 256.144C841.811 254.988 837.695 250.692 841.281 248.812Z" fill="#2F2E41"/>
<path opacity="0.2" d="M866.751 392.025L848.748 438.827L849.657 439.171L867.66 392.369L866.751 392.025Z" fill="black"/>
<path d="M853.094 276.4C853.632 276.4 854.068 275.968 854.068 275.435C854.068 274.902 853.632 274.47 853.094 274.47C852.557 274.47 852.121 274.902 852.121 275.435C852.121 275.968 852.557 276.4 853.094 276.4Z" fill="#D0CDE1"/>
<path d="M861.367 302.454C861.263 302.454 861.162 302.421 861.078 302.36C860.994 302.299 860.933 302.213 860.902 302.114L852.63 275.577C852.611 275.517 852.604 275.453 852.61 275.39C852.616 275.327 852.634 275.266 852.664 275.21C852.694 275.154 852.735 275.104 852.784 275.063C852.833 275.023 852.89 274.992 852.951 274.974C853.012 274.955 853.076 274.948 853.14 274.954C853.203 274.96 853.265 274.978 853.321 275.008C853.378 275.038 853.428 275.078 853.469 275.127C853.51 275.175 853.54 275.232 853.559 275.292L861.832 301.829C861.854 301.902 861.859 301.978 861.846 302.052C861.833 302.127 861.803 302.197 861.758 302.258C861.713 302.319 861.654 302.368 861.586 302.402C861.518 302.436 861.443 302.454 861.367 302.454V302.454Z" fill="#D0CDE1"/>
<path d="M614.872 466.943L612.321 497.796H622.014L627.115 466.943H614.872Z" fill="#FFB8B8"/>
<path d="M677.106 466.943L674.555 497.796H684.248L689.348 466.943H677.106Z" fill="#FFB8B8"/>
<path d="M681.568 297.388L680.586 312.102L675.06 356.563C675.06 356.563 668.104 377.51 678.108 375.28C688.111 373.05 684.901 355.452 684.901 355.452L691.392 313.872L693.987 299.159L681.568 297.388Z" fill="#FFB8B8"/>
<path d="M690.114 276.508L694.705 304.833L678.891 303.316L683.482 275.497L690.114 276.508Z" fill="#575A89"/>
<path d="M668.434 250.965C676.322 250.965 682.717 244.625 682.717 236.803C682.717 228.981 676.322 222.64 668.434 222.64C660.546 222.64 654.151 228.981 654.151 236.803C654.151 244.625 660.546 250.965 668.434 250.965Z" fill="#FFB8B8"/>
<path d="M677.871 241.608C677.871 241.608 682.462 251.724 685.013 257.288C687.563 262.852 687.053 263.863 687.053 263.863H666.138C666.138 263.863 668.179 249.701 666.138 248.183C664.098 246.666 677.871 241.608 677.871 241.608Z" fill="#FFB8B8"/>
<path d="M674.3 314.949C674.3 314.949 702.867 280.049 688.583 261.84C689.373 261.352 683.642 254.792 679.911 256.276C679.242 256.543 665.118 259.311 663.078 261.334C661.037 263.358 652.11 273.726 652.11 273.726C652.11 273.726 647.009 279.796 644.969 292.947C642.928 306.098 638.592 312.926 638.592 312.926" fill="#025094"/>
<path d="M638.592 312.926L637.572 321.019L616.402 400.177L605.435 470.23C610.684 478.749 622.041 480.109 639.102 474.783L642.418 405.741L657.722 367.806L664.098 474.783C677.963 479.352 690.472 478.375 701.846 472.759L682.717 359.713C682.717 359.713 692.154 343.274 675.32 322.031L674.3 314.949" fill="#2F2E41"/>
<path d="M653.896 294.717L648.284 308.374L628.9 348.838C628.9 348.838 615.637 366.541 625.839 367.553C636.042 368.564 638.592 350.861 638.592 350.861L657.977 313.432L665.118 300.281L653.896 294.717Z" fill="#FFB8B8"/>
<path d="M624.054 486.163V494.328C624.054 494.328 629.936 507.742 625.819 508.908C621.701 510.075 610.526 508.908 608.761 508.908C606.997 508.908 588.175 510.658 588.763 505.409C589.351 500.16 601.703 496.661 601.703 496.661L612.878 486.163H624.054Z" fill="#2F2E41"/>
<path d="M686.798 486.163V494.328C686.798 494.328 692.68 507.742 688.563 508.908C684.445 510.075 673.27 508.908 671.505 508.908C669.741 508.908 650.919 510.658 651.507 505.409C652.095 500.16 664.447 496.661 664.447 496.661L675.623 486.163H686.798Z" fill="#2F2E41"/>
<path d="M671.24 259.817C671.24 259.817 661.037 262.346 656.446 278.532C651.855 294.717 650.835 297.246 650.835 297.246L666.138 304.327L677.361 282.072C677.361 282.072 683.992 262.852 671.24 259.817Z" fill="#025094"/>
<path d="M653.175 232.467C653.175 232.467 650.384 210.93 673.157 217.993C673.157 217.993 689.421 215.033 694.755 235.206L700.156 256.352L697.524 254.931L696.297 257.591L692.031 258.662L690.206 255.07L689.323 259.432L654.389 262.885C654.389 262.885 670.035 253.71 670.283 237.267L667.303 240.389L653.175 232.467Z" fill="#2F2E41"/>
<path opacity="0.2" d="M674.555 280.808L663.567 303.138L665.883 304.074L674.555 280.808Z" fill="black"/>
<path opacity="0.2" d="M661.802 277.773L651.09 297.499H649.049L661.802 277.773Z" fill="black"/>
<path opacity="0.2" d="M690.025 287.564L682.17 303.631H687.095L690.025 287.564Z" fill="black"/>
<path d="M964.703 204.265H947.843V205.659H964.703V204.265Z" fill="#3F3D56"/>
<path d="M987.184 204.265H970.323V205.659H987.184V204.265Z" fill="#3F3D56"/>
<path d="M1019.85 217.152H1002.99V218.546H1019.85V217.152Z" fill="#3F3D56"/>
<path d="M1042.68 217.152H1025.82V218.546H1042.68V217.152Z" fill="#3F3D56"/>
<path d="M1042.68 204.265H993.156V205.659H1042.68V204.265Z" fill="#3F3D56"/>
<path d="M997.371 217.152H947.843V218.546H997.371V217.152Z" fill="#3F3D56"/>
<path d="M997.371 230.039H947.843V231.432H997.371V230.039Z" fill="#3F3D56"/>
<path d="M1042.68 230.039H1008.26V231.432H1042.68V230.039Z" fill="#3F3D56"/>
<path d="M943.103 210.147L937.172 204.266L943.103 198.383L944.29 199.56L939.545 204.266L944.29 208.971L943.103 210.147Z" fill="#3398DB"/>
<path d="M1058.66 237.314L1057.48 236.138L1062.22 231.432L1057.48 226.727L1058.66 225.551L1064.59 231.432L1058.66 237.314Z" fill="#3398DB"/>
<path d="M1052.42 225.27L1048.91 236.764L1050.51 237.246L1054.02 225.753L1052.42 225.27Z" fill="#D0CDE1"/>
<path d="M474.618 493.047C477.267 502.756 486.341 508.77 486.341 508.77C486.341 508.77 491.12 499.041 488.471 489.331C485.822 479.621 476.748 473.608 476.748 473.608C476.748 473.608 471.969 483.337 474.618 493.047Z" fill="#3398DB"/>
<path d="M487.012 509.094L486.651 509.075C486.54 509.069 475.551 508.397 468.281 501.38C461.011 494.363 460.038 483.488 460.029 483.379L460 483.021L460.362 483.041C460.472 483.047 471.462 483.718 478.731 490.735C486.001 497.753 486.974 508.627 486.983 508.736L487.012 509.094ZM460.7 483.697C460.938 485.638 462.374 494.804 468.722 500.931C475.07 507.059 484.349 508.235 486.312 508.419C486.074 506.477 484.639 497.312 478.29 491.185C471.938 485.052 462.663 483.88 460.7 483.697L460.7 483.697Z" fill="#3F3D56"/>
<path d="M1026.74 491.691C1023.97 501.854 1014.47 508.148 1014.47 508.148C1014.47 508.148 1009.47 497.965 1012.24 487.802C1015.01 477.638 1024.51 471.344 1024.51 471.344C1024.51 471.344 1029.51 481.528 1026.74 491.691Z" fill="#3398DB"/>
<path d="M1013.8 508.114C1013.81 507.999 1014.83 496.617 1022.44 489.271C1030.04 481.927 1041.55 481.224 1041.66 481.218L1042.04 481.197L1042.01 481.571C1042 481.686 1040.98 493.069 1033.37 500.414C1025.76 507.758 1014.26 508.461 1014.15 508.467L1013.77 508.488L1013.8 508.114ZM1022.9 489.742C1016.25 496.155 1014.75 505.749 1014.5 507.781C1016.56 507.588 1026.27 506.357 1032.91 499.943C1039.56 493.53 1041.06 483.936 1041.31 481.904C1039.25 482.096 1029.55 483.323 1022.9 489.742Z" fill="#3F3D56"/>
<path d="M543.961 244.739L537.072 251.569L530.157 244.711C534.585 242.933 539.539 242.943 543.961 244.739V244.739Z" fill="#3398DB"/>
<path d="M537.072 252.121L526.364 241.507L537.072 230.89L547.776 241.507L537.072 252.121ZM527.478 241.507L537.072 251.017L546.663 241.507L537.072 231.994L527.478 241.507Z" fill="#3F3D56"/>
<path d="M539.708 210.849L537.2 213.787L534.692 210.849V198.932H539.708V210.849Z" fill="#3398DB"/>
<path d="M545.181 189.262H542.487C543.219 188.205 543.611 186.952 543.609 185.67C543.609 182.161 540.74 176 537.2 176C533.661 176 530.791 182.161 530.791 185.67C530.789 186.952 531.181 188.205 531.914 189.262H529.219C528.676 189.263 528.155 189.478 527.771 189.859C527.387 190.24 527.171 190.756 527.169 191.295V192.754C527.171 193.293 527.387 193.809 527.771 194.19C528.155 194.571 528.676 194.786 529.219 194.788H545.181C545.724 194.786 546.245 194.571 546.629 194.19C547.013 193.809 547.23 193.293 547.231 192.754V191.295C547.23 190.756 547.013 190.24 546.629 189.859C546.245 189.478 545.724 189.263 545.181 189.262V189.262Z" fill="#3F3D56"/>
<path d="M539.661 221.34C539.66 221.986 539.4 222.606 538.939 223.063C538.477 223.519 537.852 223.776 537.2 223.776C536.548 223.776 535.923 223.519 535.462 223.063C535 222.606 534.74 221.986 534.739 221.34C534.739 219.992 537.2 217.274 537.2 217.274C537.2 217.274 539.661 219.992 539.661 221.34Z" fill="#3398DB"/>
<path d="M537.2 216.196L533.264 212.727V192.257H541.136V212.727L537.2 216.196ZM534.051 212.377L537.2 215.152L540.349 212.377V193.038H534.051V212.377Z" fill="#3F3D56"/>
<path d="M570.458 252.486L582.889 245.369L575.712 233.043L563.28 240.16L570.458 252.486Z" fill="#3F3D56"/>
<path d="M498.427 251.315L510.858 244.199L503.681 231.872L491.249 238.989L498.427 251.315Z" fill="#D0CDE1"/>
</g>
<path d="M332.983 161.71C372.687 161.786 411.173 175.549 442.063 200.719C472.952 225.889 494.389 260.953 502.821 300.1L398.103 337.45C398.103 320.029 391.244 303.321 379.035 291.002C366.825 278.683 350.266 271.762 333 271.762C315.734 271.762 299.174 278.683 286.965 291.002C274.756 303.321 267.897 320.029 267.897 337.45H159.152C159.115 314.39 163.584 291.55 172.303 270.234C181.022 248.919 193.82 229.546 209.964 213.224C226.108 196.903 245.283 183.952 266.392 175.113C287.5 166.273 310.129 161.719 332.983 161.71V161.71Z" fill="url(#paint0_radial)"/>
<path d="M267.897 337.45C267.897 354.871 274.756 371.579 286.965 383.898C299.175 396.217 315.734 403.138 333 403.138C350.266 403.138 366.825 396.217 379.035 383.898C391.244 371.579 398.103 354.871 398.103 337.45V148.184L452.26 93.14L506.831 148.166V337.433C506.831 383.945 488.519 428.552 455.922 461.442C423.326 494.331 379.116 512.808 333.017 512.808C286.919 512.808 242.709 494.331 210.112 461.442C177.516 428.552 159.203 383.945 159.203 337.433L267.897 337.45Z" fill="url(#paint1_linear)"/>
<defs>
<radialGradient id="paint0_radial" cx="0" cy="0" r="1" gradientUnits="userSpaceOnUse" gradientTransform="translate(331.073 249.589) rotate(180) scale(136.229 137.453)">
<stop offset="0.33" stop-color="#326FB6"/>
<stop offset="0.52" stop-color="#2F6DB4"/>
<stop offset="0.68" stop-color="#2466AC"/>
<stop offset="0.83" stop-color="#135BA0"/>
<stop offset="0.94" stop-color="#025094"/>
</radialGradient>
<linearGradient id="paint1_linear" x1="506.934" y1="303" x2="159.238" y2="303" gradientUnits="userSpaceOnUse">
<stop stop-color="#326FB6"/>
<stop offset="0.05" stop-color="#3A80C2"/>
<stop offset="0.14" stop-color="#4396D1"/>
<stop offset="0.23" stop-color="#4AA5DC"/>
<stop offset="0.34" stop-color="#4EAEE2"/>
<stop offset="0.49" stop-color="#4FB1E4"/>
<stop offset="0.68" stop-color="#4EAFE2"/>
<stop offset="0.79" stop-color="#4AA7DD"/>
<stop offset="0.87" stop-color="#4499D3"/>
<stop offset="0.94" stop-color="#3C86C6"/>
<stop offset="1" stop-color="#326FB6"/>
</linearGradient>
<clipPath id="clip0">
<rect width="612" height="334" fill="white" transform="translate(460 176)"/>
</clipPath>
</defs>
</svg>
