<svg id="Layer_1" data-name="Layer 1" xmlns="http://www.w3.org/2000/svg" xmlns:xlink="http://www.w3.org/1999/xlink" viewBox="0 0 893 349"><defs><radialGradient id="radial-gradient" cx="576.19" cy="84.66" r="79.16" gradientTransform="matrix(-1, 0, 0, 1, 718.42, 59.08)" gradientUnits="userSpaceOnUse"><stop offset="0.33" stop-color="#326fb6"/><stop offset="0.52" stop-color="#2f6db4"/><stop offset="0.68" stop-color="#2466ac"/><stop offset="0.83" stop-color="#135ba0"/><stop offset="0.94" stop-color="#025094"/></radialGradient><linearGradient id="linear-gradient" x1="474" y1="115.42" x2="676.03" y2="115.42" gradientTransform="matrix(-1, 0, 0, 1, 718.42, 59.08)" gradientUnits="userSpaceOnUse"><stop offset="0" stop-color="#326fb6"/><stop offset="0.05" stop-color="#3a80c2"/><stop offset="0.14" stop-color="#4396d1"/><stop offset="0.23" stop-color="#4aa5dc"/><stop offset="0.34" stop-color="#4eaee2"/><stop offset="0.49" stop-color="#4fb1e4"/><stop offset="0.68" stop-color="#4eafe2"/><stop offset="0.79" stop-color="#4aa7dd"/><stop offset="0.87" stop-color="#4499d3"/><stop offset="0.94" stop-color="#3c86c6"/><stop offset="1" stop-color="#326fb6"/></linearGradient></defs><path d="M143.4,93.13a101.19,101.19,0,0,1,98.69,79.7l-60.85,21.51a37.83,37.83,0,0,0-75.66,0H42.39A101.05,101.05,0,0,1,143.4,93.13Z" style="fill:url(#radial-gradient)"/><path d="M105.58,194.34a37.83,37.83,0,0,0,75.66,0v-109l31.47-31.7,31.71,31.69v109a101,101,0,0,1-202,0Z" style="fill:url(#linear-gradient)"/><path d="M366,242.47q-13.06,9.08-34.78,9.09h-50V86.72h50q21.51,0,35.2,9.71,14.82,10.65,14.84,29.87v86.6a37.49,37.49,0,0,1-3.56,16.61l-.1.32a36.34,36.34,0,0,1-11.5,12.64ZM312,109.59v119h19.22c6.61,0,11.32-1,14.1-2.92q5.12-3.35,5.12-12.75V126.3q0-9.39-5.33-13.37l-.1-.1q-4.39-3.24-13.79-3.24Z" style="fill:#343434"/><path d="M487,228.57v23H400.05V86.72H487v22.87H430.88v45.86h38.64v23H430.88v50.14Z" style="fill:#343434"/><path d="M580.15,251.56H548.6L505.77,86.72h31.34l27.26,119.92L591.64,86.72h31.23Z" style="fill:#343434"/><path d="M672.49,184.18v67.38H641.67V86.72h50q21.4,0,35.21,9.71,14.72,10.65,14.72,29.87v18.29q0,19.42-14.84,30.08-13.35,9.51-35.09,9.51Zm0-74.59V161.3h19.22q9.28,0,13.79-3.34,5.43-3.77,5.43-13.37V126.3q0-9.39-5.32-13.37l-.11-.1q-4.5-3.24-13.79-3.24Z" style="fill:#0796ce"/><path d="M750,109.59V86.72H850.6v22.87h-35v142H784.9v-142Z" style="fill:#0796ce"/><path d="M411.77,269.9a4.05,4.05,0,0,1,1.71,3.47v1H411v-1a3,3,0,0,0-1.07-2.57,4.14,4.14,0,0,0-2.46-.61,4,4,0,0,0-2.42.61,3,3,0,0,0-1.11,2.57v12.38a3,3,0,0,0,1.11,2.58,4.11,4.11,0,0,0,2.42.61,4.21,4.21,0,0,0,2.46-.61,3,3,0,0,0,1.07-2.58v-1.88h2.53v1.88a4.06,4.06,0,0,1-1.71,3.48,7.35,7.35,0,0,1-4.35,1.15,7.62,7.62,0,0,1-4.36-1.15,4.16,4.16,0,0,1-1.71-3.48V273.37a4.18,4.18,0,0,1,1.71-3.47,7.7,7.7,0,0,1,4.36-1.14A7.42,7.42,0,0,1,411.77,269.9Z" style="fill:#343434"/><path d="M428.2,273.37v12.38a4.07,4.07,0,0,1-1.7,3.48,8.82,8.82,0,0,1-8.71,0,4.06,4.06,0,0,1-1.71-3.48V273.37a4.05,4.05,0,0,1,1.71-3.47,8.89,8.89,0,0,1,8.71,0A4.07,4.07,0,0,1,428.2,273.37Zm-2.53,12.38V273.37a2.92,2.92,0,0,0-1.11-2.57,3.94,3.94,0,0,0-2.42-.61,4.12,4.12,0,0,0-2.43.61,3,3,0,0,0-1.1,2.57v12.38a3,3,0,0,0,1.12,2.58,4.1,4.1,0,0,0,2.41.61,4,4,0,0,0,2.42-.61A2.93,2.93,0,0,0,425.67,285.75Z" style="fill:#343434"/><path d="M444.93,269h.89l2.91,21.09h-2.52l-1.7-15.22-4.46,11.53h-1.14l-4.46-11.53-1.7,15.22h-2.52L433.14,269h.91l5.47,13.74Z" style="fill:#343434"/><path d="M452.46,289.23a4.07,4.07,0,0,1-1.7-3.48V269h2.53v16.73a2.94,2.94,0,0,0,1.07,2.58,4.21,4.21,0,0,0,2.46.61,4.1,4.1,0,0,0,2.41-.61,3,3,0,0,0,1.12-2.58V269h2.53v16.73a4.18,4.18,0,0,1-1.71,3.48,7.61,7.61,0,0,1-4.35,1.15A7.36,7.36,0,0,1,452.46,289.23Z" style="fill:#343434"/><path d="M468,275.46v14.65h-2.53V269h1l9,14.61V269H478v21.09h-1Z" style="fill:#343434"/><path d="M480.63,290.11V269h2.53v21.09Z" style="fill:#343434"/><path d="M497.87,285.63a4.45,4.45,0,0,1-.39,1.92,4.2,4.2,0,0,1-1.32,1.46h0a7.48,7.48,0,0,1-4.33,1.1h-6.06V269h6.06a7.4,7.4,0,0,1,4.37,1.18,4,4,0,0,1,1.68,3.43Zm-2.52,0v-12a3,3,0,0,0-1.08-2.54l0,0a4,4,0,0,0-2.42-.61h-3.53v18.23h3.53a4.15,4.15,0,0,0,2.45-.57A2.78,2.78,0,0,0,495.35,285.63Z" style="fill:#343434"/><path d="M510.9,290.11l-.86-3.69h-7.21l-.85,3.69h-2.52L504.93,269h3l5.47,21.09ZM503.15,285h6.58l-3.3-14.49Z" style="fill:#343434"/><path d="M528.13,285.63a4.45,4.45,0,0,1-.39,1.92,4.17,4.17,0,0,1-1.31,1.46h0a7.46,7.46,0,0,1-4.32,1.1H516V269h6.06a7.43,7.43,0,0,1,4.37,1.18,4,4,0,0,1,1.67,3.43Zm-2.51,0v-12a3,3,0,0,0-1.09-2.54l0,0a4,4,0,0,0-2.41-.61h-3.53v18.23h3.53a4.12,4.12,0,0,0,2.44-.57A2.79,2.79,0,0,0,525.62,285.63Z" style="fill:#343434"/><path d="M541,288.68v1.43h-10.3V269H541v1.43h-7.79v8.1h5.37V280h-5.37v8.7Z" style="fill:#343434"/><path d="M562.38,285.63a4.45,4.45,0,0,1-.4,1.92,4.07,4.07,0,0,1-1.31,1.46h0a7.46,7.46,0,0,1-4.32,1.1h-6.06V269h6.06a7.43,7.43,0,0,1,4.37,1.18,4,4,0,0,1,1.68,3.43Zm-2.52,0v-12a3,3,0,0,0-1.09-2.54l0,0a4,4,0,0,0-2.41-.61H552.8v18.23h3.53a4.12,4.12,0,0,0,2.44-.57A2.77,2.77,0,0,0,559.86,285.63Z" style="fill:#343434"/><path d="M575.28,288.68v1.43H565V269h10.3v1.43H567.5v8.1h5.36V280H567.5v8.7Z" style="fill:#343434"/><path d="M586.37,290.11h-3L577.88,269h2.5l4.49,19.66L589.34,269h2.5Z" style="fill:#343434"/><path d="M604.75,288.68v1.43h-10.3V269h10.3v1.43H597v8.1h5.37V280H597v8.7Z" style="fill:#343434"/><path d="M617.65,288.68v1.43h-10.3V269h2.52v19.66Z" style="fill:#343434"/><path d="M631.07,273.37v12.38a4.07,4.07,0,0,1-1.7,3.48,8.82,8.82,0,0,1-8.71,0,4.06,4.06,0,0,1-1.71-3.48V273.37a4.05,4.05,0,0,1,1.71-3.47,8.89,8.89,0,0,1,8.71,0A4.07,4.07,0,0,1,631.07,273.37Zm-2.53,12.38V273.37a2.92,2.92,0,0,0-1.11-2.57,3.94,3.94,0,0,0-2.42-.61,4.12,4.12,0,0,0-2.43.61,3,3,0,0,0-1.1,2.57v12.38a3,3,0,0,0,1.12,2.58,4.1,4.1,0,0,0,2.41.61,4,4,0,0,0,2.42-.61A2.93,2.93,0,0,0,628.54,285.75Z" style="fill:#343434"/><path d="M645.8,276.16a3.92,3.92,0,0,1-1.71,3.46,7.35,7.35,0,0,1-4.35,1.16h-3.53v9.33h-2.53V269h6.06a7.43,7.43,0,0,1,4.37,1.18,3.94,3.94,0,0,1,1.69,3.43Zm-2.53,0v-2.53a3,3,0,0,0-1.09-2.54l0,0a4,4,0,0,0-2.41-.61h-3.53v8.9h3.53a4.1,4.1,0,0,0,2.41-.61A3,3,0,0,0,643.27,276.16Z" style="fill:#343434"/><path d="M658.7,288.68v1.43H648.4V269h10.3v1.43h-7.78v8.1h5.37V280h-5.37v8.7Z" style="fill:#343434"/><path d="M671.74,270.2a3.94,3.94,0,0,1,1.69,3.43v2.5a4,4,0,0,1-1.69,3.46l0,0a2.31,2.31,0,0,1-.52.32l-.79.4,2.59,9.77h-2.54L668,280.75h-4.12v9.36h-2.53V269h6.06a7.34,7.34,0,0,1,4.35,1.18Zm-.84,5.93v-2.5a3,3,0,0,0-1.09-2.54l0,0a4,4,0,0,0-2.41-.61h-3.53v8.87h3.53a4,4,0,0,0,2.41-.62A2.93,2.93,0,0,0,670.9,276.13Z" style="fill:#343434"/><path d="M686.45,269.9a4.05,4.05,0,0,1,1.71,3.47v.91h-2.54v-.91a2.92,2.92,0,0,0-1.11-2.57,3.94,3.94,0,0,0-2.42-.61,4,4,0,0,0-2.41.61,3,3,0,0,0-1.12,2.57v.57a4.55,4.55,0,0,0,.16,1.07,3.79,3.79,0,0,0,.62,1.24,5.4,5.4,0,0,0,1.31,1.23l0,0a14.29,14.29,0,0,0,1.84.88,17.36,17.36,0,0,1,2.91,1.42,5.36,5.36,0,0,1,2.72,4.48v1.46a4.06,4.06,0,0,1-1.71,3.48,8.82,8.82,0,0,1-8.71,0,4.06,4.06,0,0,1-1.71-3.48v-1.9h2.53v1.9a3,3,0,0,0,1.12,2.58,4.1,4.1,0,0,0,2.41.61,4,4,0,0,0,2.42-.61,2.93,2.93,0,0,0,1.11-2.58v-1.46a4.08,4.08,0,0,0-.16-1.07,3.85,3.85,0,0,0-.6-1.25,5.45,5.45,0,0,0-1.31-1.25h0c-.09-.06-.27-.16-.56-.31s-.76-.36-1.44-.66h0a19.18,19.18,0,0,1-2.79-1.36,6.73,6.73,0,0,1-2-2.09,4.34,4.34,0,0,1-.67-2.35v-.57a4.05,4.05,0,0,1,1.71-3.47,8.89,8.89,0,0,1,8.71,0Z" style="fill:#343434"/><path d="M709.51,276.16a3.92,3.92,0,0,1-1.71,3.46,7.35,7.35,0,0,1-4.35,1.16h-3.53v9.33h-2.54V269h6.07a7.37,7.37,0,0,1,4.36,1.18,4,4,0,0,1,1.7,3.43Zm-2.54,0v-2.53a3,3,0,0,0-1.08-2.54l0,0a4,4,0,0,0-2.41-.61h-3.53v8.9h3.53a4.1,4.1,0,0,0,2.41-.61A3,3,0,0,0,707,276.16Z" style="fill:#343434"/><path d="M724.23,273.37v12.38a4.07,4.07,0,0,1-1.7,3.48,8.82,8.82,0,0,1-8.71,0,4.06,4.06,0,0,1-1.71-3.48V273.37a4.05,4.05,0,0,1,1.71-3.47,8.89,8.89,0,0,1,8.71,0A4.07,4.07,0,0,1,724.23,273.37Zm-2.53,12.38V273.37a2.92,2.92,0,0,0-1.11-2.57,3.94,3.94,0,0,0-2.42-.61,4.12,4.12,0,0,0-2.43.61,3,3,0,0,0-1.1,2.57v12.38a3,3,0,0,0,1.12,2.58,4.1,4.1,0,0,0,2.41.61,4,4,0,0,0,2.42-.61A2.93,2.93,0,0,0,721.7,285.75Z" style="fill:#343434"/><path d="M737.27,270.2a3.94,3.94,0,0,1,1.69,3.43v2.5a4,4,0,0,1-1.69,3.46l0,0a2.31,2.31,0,0,1-.52.32l-.79.4,2.59,9.77H736l-2.47-9.36h-4.12v9.36h-2.53V269h6.06a7.34,7.34,0,0,1,4.35,1.18Zm-.84,5.93v-2.5a3,3,0,0,0-1.09-2.54l0,0a4,4,0,0,0-2.41-.61h-3.53v8.87h3.53a4,4,0,0,0,2.41-.62A2.93,2.93,0,0,0,736.43,276.13Z" style="fill:#343434"/><path d="M740.12,270.45V269h12.21v1.43h-4.85v19.66H745V270.45Z" style="fill:#343434"/><path d="M756.64,289.23a4.06,4.06,0,0,1-1.71-3.48V269h2.53v16.73a3,3,0,0,0,1.07,2.58,4.21,4.21,0,0,0,2.46.61,4.13,4.13,0,0,0,2.42-.61,3,3,0,0,0,1.11-2.58V269h2.53v16.73a4.2,4.2,0,0,1-1.7,3.48,7.62,7.62,0,0,1-4.36,1.15A7.35,7.35,0,0,1,756.64,289.23Z" style="fill:#343434"/><path d="M780.07,269.9a4.05,4.05,0,0,1,1.71,3.47v1h-2.53v-1a3,3,0,0,0-1.07-2.57,5.2,5.2,0,0,0-4.89,0,3,3,0,0,0-1.1,2.57v12.38a3,3,0,0,0,1.11,2.58,4.13,4.13,0,0,0,2.42.61,4.21,4.21,0,0,0,2.46-.61,3,3,0,0,0,1.07-2.58v-5.46h-2.38v-1.45h4.91v6.91a4.06,4.06,0,0,1-1.71,3.48,7.35,7.35,0,0,1-4.35,1.15,7.62,7.62,0,0,1-4.36-1.15,4.15,4.15,0,0,1-1.7-3.48V273.37a4.17,4.17,0,0,1,1.7-3.47,7.7,7.7,0,0,1,4.36-1.14A7.42,7.42,0,0,1,780.07,269.9Z" style="fill:#343434"/><path d="M786.09,289.23a4.06,4.06,0,0,1-1.71-3.48V269h2.53v16.73a3,3,0,0,0,1.07,2.58,4.21,4.21,0,0,0,2.46.61,4.13,4.13,0,0,0,2.42-.61,3,3,0,0,0,1.11-2.58V269h2.53v16.73a4.17,4.17,0,0,1-1.7,3.48,7.62,7.62,0,0,1-4.36,1.15A7.35,7.35,0,0,1,786.09,289.23Z" style="fill:#343434"/><path d="M809.41,288.68v1.43h-10.3V269h10.3v1.43h-7.78v8.1H807V280h-5.36v8.7Z" style="fill:#343434"/><path d="M821.2,269.9a4.05,4.05,0,0,1,1.71,3.47v.91h-2.54v-.91a2.92,2.92,0,0,0-1.11-2.57,3.94,3.94,0,0,0-2.42-.61,4,4,0,0,0-2.41.61,3,3,0,0,0-1.12,2.57v.57a4.55,4.55,0,0,0,.16,1.07,3.79,3.79,0,0,0,.62,1.24,5.4,5.4,0,0,0,1.31,1.23l0,0a14.29,14.29,0,0,0,1.84.88,17.36,17.36,0,0,1,2.91,1.42,5.36,5.36,0,0,1,2.72,4.48v1.46a4.06,4.06,0,0,1-1.71,3.48,8.82,8.82,0,0,1-8.71,0,4.06,4.06,0,0,1-1.71-3.48v-1.9h2.53v1.9a3,3,0,0,0,1.12,2.58,4.1,4.1,0,0,0,2.41.61,4,4,0,0,0,2.42-.61,2.93,2.93,0,0,0,1.11-2.58v-1.46a4.08,4.08,0,0,0-.16-1.07,3.85,3.85,0,0,0-.6-1.25,5.45,5.45,0,0,0-1.31-1.25h0c-.09-.06-.27-.16-.56-.31s-.76-.36-1.44-.66h0a19.18,19.18,0,0,1-2.79-1.36,6.73,6.73,0,0,1-2-2.09,4.34,4.34,0,0,1-.67-2.35v-.57a4.05,4.05,0,0,1,1.71-3.47,8.89,8.89,0,0,1,8.71,0Z" style="fill:#343434"/><path d="M835.81,288.68v1.43h-10.3V269h10.3v1.43H828v8.1h5.36V280H828v8.7Z" style="fill:#343434"/><path d="M847.6,269.9a4.05,4.05,0,0,1,1.71,3.47v.91h-2.54v-.91a2.92,2.92,0,0,0-1.11-2.57,3.94,3.94,0,0,0-2.42-.61,4,4,0,0,0-2.41.61,3,3,0,0,0-1.12,2.57v.57a4.55,4.55,0,0,0,.16,1.07,3.79,3.79,0,0,0,.62,1.24,5.4,5.4,0,0,0,1.31,1.23l0,0a14.29,14.29,0,0,0,1.84.88,16.92,16.92,0,0,1,2.91,1.42,5.36,5.36,0,0,1,2.72,4.48v1.46a4.06,4.06,0,0,1-1.71,3.48,8.82,8.82,0,0,1-8.71,0,4.06,4.06,0,0,1-1.71-3.48v-1.9h2.53v1.9a3,3,0,0,0,1.12,2.58,4.1,4.1,0,0,0,2.41.61,4,4,0,0,0,2.42-.61,2.93,2.93,0,0,0,1.11-2.58v-1.46a4.08,4.08,0,0,0-.16-1.07A3.85,3.85,0,0,0,846,282a5.58,5.58,0,0,0-1.3-1.25h0c-.09-.06-.27-.16-.56-.31s-.76-.36-1.44-.66h0a19.18,19.18,0,0,1-2.79-1.36,6.73,6.73,0,0,1-2-2.09,4.34,4.34,0,0,1-.67-2.35v-.57a4.05,4.05,0,0,1,1.71-3.47,8.89,8.89,0,0,1,8.71,0Z" style="fill:#343434"/></svg>