<svg width="1920" height="996" viewBox="0 0 1920 996" fill="none" xmlns="http://www.w3.org/2000/svg">
<g clip-path="url(#clip0)">
<path fill-rule="evenodd" clip-rule="evenodd" d="M1.04187 995.127H1919.99V0.0045016H1.04187V995.127Z" fill="#8EBAE7"/>
<path fill-rule="evenodd" clip-rule="evenodd" d="M1.04358 154.044H1919.99V143.919H1.04358V154.044Z" fill="#A6CCEE"/>
<path fill-rule="evenodd" clip-rule="evenodd" d="M1.04358 572.779H1919.99V198.161H1.04358V572.779Z" fill="#A6CCEE"/>
<path fill-rule="evenodd" clip-rule="evenodd" d="M1.04358 368.835H1919.99V318.934H1.04358V368.835Z" fill="#BBDCF4"/>
<path fill-rule="evenodd" clip-rule="evenodd" d="M1469.48 185.234C1481.23 185.234 1489.89 188.303 1493.45 192.978C1509.91 178.502 1541.7 167.948 1572.33 167.948C1596.91 167.948 1614.62 174.75 1620.75 184.921C1634.85 178.178 1653.21 173.853 1671.09 173.853C1690.73 173.853 1705.09 179.074 1710.72 186.986C1720.05 183.528 1731.01 181.425 1741.75 181.425C1763.13 181.425 1776.06 189.781 1772.4 200.542L1830.76 203.033L1769.51 205.645C1761.02 216.348 1738.79 224.639 1717.48 224.639C1706.75 224.639 1698.15 222.534 1692.7 219.079C1678.2 226.99 1657.97 232.212 1638.33 232.212C1620.45 232.212 1606.94 227.886 1600.42 221.143C1582.87 231.316 1557.52 238.116 1532.94 238.116C1502.31 238.116 1482.37 227.562 1482.16 213.086C1473.35 217.76 1461.25 220.829 1449.49 220.829C1432.16 220.829 1421.57 214.166 1424.11 205.513L1365.99 203.033L1427 200.429C1434.25 191.833 1452.23 185.234 1469.48 185.234" fill="#A6CCEE"/>
<path fill-rule="evenodd" clip-rule="evenodd" d="M1.04358 391.079H1919.99V380.953H1.04358V391.079Z" fill="#BBDCF4"/>
<path fill-rule="evenodd" clip-rule="evenodd" d="M1.04358 219.132H1919.99V209.008H1.04358V219.132Z" fill="#8EBAE7"/>
<path fill-rule="evenodd" clip-rule="evenodd" d="M577.016 658.117C863.524 658.117 1097.19 536.938 1097.19 388.362C1097.19 239.786 863.524 118.608 577.016 118.608C290.512 118.608 56.8361 239.786 56.8361 388.362C56.8361 536.938 290.512 658.117 577.016 658.117" fill="#E4F4FC"/>
<path fill-rule="evenodd" clip-rule="evenodd" d="M1096.99 380.953C1097.12 383.415 1097.19 385.883 1097.19 388.362C1097.19 389.27 1097.15 390.172 1097.13 391.079H56.8993C56.8848 390.172 56.8348 389.27 56.8348 388.362C56.8348 385.883 56.9098 383.415 57.039 380.953H1096.99ZM965.52 209.008C971.194 212.311 976.715 215.687 982.075 219.132H171.953C177.315 215.687 182.832 212.311 188.506 209.008H965.52Z" fill="#D0E8F8"/>
<path fill-rule="evenodd" clip-rule="evenodd" d="M797.208 143.919C810.063 147.039 822.64 150.411 834.894 154.044H319.136C331.39 150.411 343.97 147.039 356.822 143.919H797.208Z" fill="white"/>
<path fill-rule="evenodd" clip-rule="evenodd" d="M1.04529 559.765L224.178 444.053L635.581 657.397L921.469 509.141L1053.96 577.845L1491.86 350.757L1919.99 572.779V995.127H1.04529V559.765Z" fill="#6FA3DD"/>
<path fill-rule="evenodd" clip-rule="evenodd" d="M1919.99 668.965V683.429H0.0453734L0 668.965H1919.99ZM1159.95 522.876L1232.47 485.271H1751.24L1823.76 522.876H1159.95V522.876ZM1090.22 559.037L1120.91 543.125H1862.81L1893.49 559.037H1090.22ZM894.982 522.876L921.471 509.141L947.96 522.876H894.982ZM825.253 559.037L855.933 543.125H987.009L1017.69 559.037H825.253ZM666.271 641.482L769.469 587.964H1919.99V641.482H666.271ZM501.695 587.964L604.9 641.482H1.04699V587.966L501.695 587.964ZM72.1767 522.876L144.693 485.271H303.664L376.183 522.876H72.1767ZM2.44676 559.037L33.1283 543.125H415.231L445.914 559.037H2.44676Z" fill="#7FB0E2"/>
<path fill-rule="evenodd" clip-rule="evenodd" d="M1.04358 65.0909H1919.99V54.9652H1.04358V65.0909Z" fill="#7DABE0"/>
<path fill-rule="evenodd" clip-rule="evenodd" d="M1.04358 41.2239H1919.99V15.9113H1.04358V41.2239Z" fill="#7DABE0"/>
<path fill-rule="evenodd" clip-rule="evenodd" d="M1204.14 286.392C1215.42 286.392 1225.21 287.854 1233.06 290.43C1249.08 277.935 1277.3 269.033 1304.54 269.033C1332.49 269.033 1350.95 278.406 1352.1 291.418C1357.58 290.506 1363.2 290.007 1368.76 290.007C1386.58 290.007 1399.23 295.103 1403.11 302.639C1420.1 291.308 1446.9 283.497 1472.83 283.497C1509.03 283.497 1529.83 298.716 1519.28 317.488C1508.73 336.261 1470.84 351.478 1434.64 351.478C1406.13 351.478 1387.18 342.038 1385.56 328.858C1373.45 335.109 1357.07 339.184 1341.13 339.184C1325.02 339.184 1313.13 335.013 1308.14 328.641C1295.52 332.544 1281.42 334.845 1267.57 334.845C1257.62 334.845 1248.87 333.657 1241.68 331.54C1225.26 345.223 1194.85 355.095 1165.55 355.095C1128.96 355.095 1107.94 339.715 1118.6 320.743C1129.26 301.771 1167.56 286.392 1204.14 286.392Z" fill="#BBDCF4"/>
<path fill-rule="evenodd" clip-rule="evenodd" d="M825.065 302.768C853.427 302.768 869.593 313.561 864.212 327.661L987.918 332.186L857.826 336.948C843.94 350.931 813.286 361.605 785.087 361.605C767.745 361.605 754.962 357.566 748.878 351.209C734.251 357.493 716.148 361.476 698.96 361.476C676.989 361.476 662.371 354.97 659.484 345.47C640.702 358.255 610.356 367.261 582.063 367.261C563.304 367.261 549.023 363.299 541.116 356.902C528.306 360.904 514.077 363.283 500.394 363.283C479.962 363.283 465.524 357.984 460.195 349.891C455.198 350.831 450.061 351.35 445.049 351.35C427.625 351.35 417.273 345.098 419.088 336.683L296.201 332.186L425.468 327.454C435.164 319.16 453.83 313.024 471.091 313.024C476.106 313.024 480.534 313.542 484.257 314.481C500.58 306.389 522.223 301.089 542.655 301.089C556.338 301.089 567.335 303.469 574.708 307.47C591.306 301.073 610.972 297.111 629.731 297.111C658.021 297.111 676.124 306.117 677.538 318.903C693.332 309.402 716.793 302.896 738.764 302.896C755.952 302.896 768.639 306.881 774.728 313.164C789.457 306.806 807.72 302.768 825.065 302.768" fill="white"/>
<path fill-rule="evenodd" clip-rule="evenodd" d="M84.7451 230.152C93.1063 230.152 99.26 232.334 101.791 235.659C113.5 225.365 136.108 217.858 157.887 217.858C175.372 217.858 187.962 222.695 192.327 229.931C202.348 225.135 215.407 222.058 228.122 222.058C242.093 222.058 252.305 225.772 256.304 231.398C262.938 228.939 270.736 227.442 278.37 227.442C293.581 227.442 302.775 233.386 300.17 241.039L341.673 242.808L298.114 244.668C292.074 252.278 276.267 258.176 261.117 258.176C253.483 258.176 247.363 256.679 243.491 254.22C233.175 259.847 218.796 263.561 204.826 263.561C192.107 263.561 182.503 260.484 177.867 255.688C165.382 262.922 147.36 267.759 129.876 267.759C108.097 267.759 93.9139 260.252 93.7643 249.958C87.4992 253.283 78.8975 255.465 70.5331 255.465C58.2096 255.465 50.6777 250.727 52.4813 244.573L11.1528 242.808L54.5344 240.959C59.6923 234.846 72.4785 230.152 84.7451 230.152" fill="white"/>
<path fill-rule="evenodd" clip-rule="evenodd" d="M1.04529 581.102H61.0153V528.666H159.34V614.367H203.968V543.125H337.85V465.39H477.306V595.566H516.355V560.852H708.808V572.779H775.746V644.743H820.376V587.964H898.471V559.037H960.515V497.567H1076.98V631.726H1166.23V587.964H1191.33V543.125H1275.01V522.876H1397.74V572.779H1439.57V641.482H1486.99V502.997H1590.19V597.012H1626.44V559.037H1704.54V588.335H1757.53V543.125H1824.48V500.103H1919.99V995.127H1.04529V581.102Z" fill="#598FD2"/>
<path fill-rule="evenodd" clip-rule="evenodd" d="M477.308 465.39H421.527V677.287H477.308V465.39ZM708.81 560.852H675.339V664.268H708.81V560.852ZM775.748 572.779H761.803V668.965H775.748V572.779ZM898.472 559.037H940.306V646.911H898.472V559.037ZM820.378 587.964H858.03V668.965H820.378V587.964ZM960.517 497.567H986.33V637.508H960.517V497.567ZM1166.23 587.964H1184.36V668.965H1166.23V587.964ZM1191.34 543.125H1220.62V627.386H1191.34V543.125ZM1275.01 522.876H1302.9V616.537H1275.01V522.876ZM1486.99 502.997H1512.09V699.706H1486.99V502.997V502.997ZM1626.44 559.037H1661.31V625.216H1626.44V559.037ZM1757.54 543.125H1774.27V626.66H1757.54V543.125V543.125ZM1824.48 500.103H1848.18V584.716H1824.48V500.103ZM159.341 528.666H134.239V687.412H159.341V528.666" fill="#BBDCF4"/>
<path fill-rule="evenodd" clip-rule="evenodd" d="M1.04529 606.411H97.9776V734.053H203.964V419.103H316.927V559.037H392.237V683.429H456.387V380.953H494.036V368.835H555.398V380.953H623.736V794.444H724.835V611.108H848.262V683.429H916.6V582.547H1011.43V347.505H1033.05V335.571H1129.27V347.505H1136.94V610.75H1252.69V781.427H1295.92V295.435H1324.52V278.802H1410.98V295.435H1466.07V572.779H1570.66V795.167H1685.02V432.842H1803.56V641.482H1919.99V995.127H1.04529V606.411Z" fill="#325DA7"/>
<path fill-rule="evenodd" clip-rule="evenodd" d="M623.737 380.953H576.317V829.163H623.737V380.953ZM392.238 559.038H361.556V764.076H392.238V559.038ZM97.9793 606.412H53.3444V797.343H97.9793V606.412ZM1011.43 347.506H1052.91V668.965H1011.43V347.506ZM1295.93 295.435H1351.36V867.492H1295.93V295.435V295.435ZM1685.02 432.842H1741.84V910.883H1685.02V432.842V432.842ZM916.601 582.548H951.111V787.939H916.601V582.548ZM724.836 611.108H782.363V871.108H724.836V611.108ZM316.929 419.103H284.848V559.038H316.929V419.103" fill="#4172BE"/>
<path fill-rule="evenodd" clip-rule="evenodd" d="M1.04529 696.57H58.5743V749.97H102.138V955.34H291.242V700.679H391.235V655.498H656.573V700.679H735.78V836.224H1020.92V626.744H1218.92V556.92H1534.41V626.744H1645.3V877.299H1868.42V733.539H1919.99V995.127H1.04529V696.57Z" fill="#1E335B"/>
<path fill-rule="evenodd" clip-rule="evenodd" d="M1218.93 556.92H1295.93V683.429H1218.93V556.92ZM102.14 749.97H55.0551V995.127H102.14V749.97ZM735.781 700.679H695.966V933.67H735.781V700.679ZM656.575 655.498H615.702V760.825H656.575V655.498ZM1020.92 626.744H1127.51V893.893H1020.92V626.744Z" fill="#23447C"/>
<path d="M787.538 595.904C858.476 595.904 917.904 651.973 932.409 726.758L843.076 762.074C843.076 745.601 837.225 729.803 826.809 718.155C816.394 706.507 802.268 699.963 787.538 699.963C772.809 699.963 758.682 706.507 748.267 718.155C737.852 729.803 732 745.601 732 762.074H639.247C639.206 740.267 643.012 718.665 650.447 698.506C657.881 678.346 668.798 660.024 682.572 644.589C696.346 629.154 712.708 616.909 730.719 608.555C748.731 600.201 768.039 595.902 787.538 595.904V595.904Z" fill="white"/>
<path d="M732 762.074C732 778.547 737.852 794.345 748.267 805.993C758.682 817.641 772.809 824.185 787.538 824.185C802.268 824.185 816.394 817.641 826.809 805.993C837.224 794.345 843.076 778.547 843.076 762.074V583.114L889.276 531.068L935.829 583.098V762.058C935.829 806.037 920.207 848.215 892.4 879.314C864.593 910.412 826.878 927.883 787.553 927.883C748.227 927.883 710.513 910.412 682.705 879.314C654.898 848.215 639.276 806.037 639.276 762.058L732 762.074Z" fill="white"/>
<path d="M1114.32 841.095C1101.54 851.034 1084.52 856.009 1063.26 856.02H989.855V585.38H1063.26C1084.31 585.38 1101.54 590.694 1114.95 601.322C1129.46 612.979 1136.71 629.326 1136.72 650.364V792.546C1136.87 801.964 1135.08 811.294 1131.5 819.817L1131.35 820.343C1127.28 828.662 1121.5 835.776 1114.48 841.095H1114.32ZM1035.04 622.929V818.307H1063.26C1072.96 818.307 1079.88 816.665 1083.96 813.513C1088.97 809.846 1091.48 802.868 1091.48 792.579V650.364C1091.48 640.086 1088.87 632.769 1083.65 628.412L1083.5 628.248C1079.21 624.702 1072.46 622.929 1063.26 622.929H1035.04Z" fill="white"/>
<path d="M1291.96 818.274V856.036H1164.32V585.38H1291.96V622.929H1209.6V698.223H1266.32V735.985H1209.57V818.307L1291.96 818.274Z" fill="white"/>
<path d="M1428.71 856.02H1382.39L1319.51 585.38H1365.52L1405.56 782.269L1445.58 585.38H1491.44L1428.71 856.02Z" fill="white"/>
<path d="M1564.27 745.393V856.02H1519.03V585.38H1592.43C1613.39 585.38 1630.63 590.694 1644.12 601.322C1658.53 612.979 1665.73 629.326 1665.73 650.364V680.393C1665.73 701.649 1658.47 718.111 1643.96 729.779C1630.87 740.188 1613.7 745.393 1592.43 745.393H1564.27ZM1564.27 622.929V707.828H1592.49C1601.59 707.828 1608.34 706 1612.73 702.344C1618.05 698.218 1620.71 690.9 1620.71 680.393V650.364C1620.71 640.086 1618.1 632.769 1612.9 628.412L1612.73 628.248C1608.34 624.702 1601.59 622.929 1592.49 622.929H1564.27Z" fill="white"/>
<path d="M1678.06 622.929V585.38H1825.75V622.929H1774.37V856.069H1729.3V622.929H1678.06Z" fill="white"/>
<path d="M1181.51 886.131C1182.32 886.771 1182.98 887.628 1183.42 888.623C1183.85 889.618 1184.06 890.72 1184.02 891.828V893.47H1180.38V891.828C1180.45 891.035 1180.34 890.237 1180.06 889.502C1179.79 888.767 1179.36 888.118 1178.81 887.609C1177.73 886.861 1176.47 886.511 1175.2 886.607C1173.95 886.516 1172.71 886.866 1171.65 887.609C1171.09 888.111 1170.65 888.758 1170.37 889.493C1170.08 890.228 1169.96 891.03 1170.02 891.828V912.154C1169.96 912.955 1170.08 913.76 1170.36 914.498C1170.65 915.237 1171.09 915.886 1171.65 916.39C1172.71 917.126 1173.95 917.475 1175.2 917.392C1176.47 917.48 1177.73 917.131 1178.81 916.39C1179.36 915.879 1179.79 915.227 1180.07 914.489C1180.34 913.751 1180.45 912.95 1180.38 912.154V909.067H1184.1V912.154C1184.14 913.265 1183.93 914.37 1183.49 915.368C1183.05 916.366 1182.4 917.225 1181.59 917.868C1179.69 919.228 1177.45 919.888 1175.2 919.756C1172.95 919.863 1170.71 919.205 1168.8 917.868C1168 917.211 1167.36 916.349 1166.92 915.354C1166.49 914.359 1166.28 913.261 1166.3 912.154V891.828C1166.28 890.724 1166.5 889.631 1166.93 888.64C1167.37 887.648 1168.01 886.788 1168.8 886.131C1170.72 884.807 1172.95 884.155 1175.2 884.259C1177.43 884.146 1179.63 884.8 1181.51 886.131V886.131Z" fill="white"/>
<path d="M1205.65 891.828V912.154C1205.69 913.265 1205.48 914.37 1205.04 915.368C1204.6 916.366 1203.95 917.225 1203.14 917.868C1201.19 919.105 1198.99 919.756 1196.74 919.756C1194.5 919.756 1192.3 919.105 1190.35 917.868C1189.54 917.225 1188.89 916.366 1188.45 915.368C1188.01 914.37 1187.8 913.265 1187.84 912.154V891.828C1187.8 890.72 1188.01 889.618 1188.45 888.623C1188.89 887.628 1189.54 886.771 1190.35 886.131C1192.3 884.904 1194.51 884.26 1196.74 884.26C1198.98 884.26 1201.19 884.904 1203.14 886.131C1203.95 886.771 1204.6 887.628 1205.04 888.623C1205.48 889.618 1205.69 890.72 1205.65 891.828V891.828ZM1201.92 912.154V891.828C1201.99 891.028 1201.87 890.223 1201.59 889.486C1201.3 888.748 1200.86 888.103 1200.29 887.609C1199.23 886.853 1197.99 886.502 1196.74 886.607C1195.48 886.519 1194.24 886.869 1193.17 887.609C1192.61 888.112 1192.18 888.76 1191.9 889.495C1191.61 890.23 1191.5 891.031 1191.56 891.828V912.154C1191.5 912.957 1191.62 913.762 1191.91 914.501C1192.19 915.239 1192.64 915.888 1193.2 916.39C1194.26 917.125 1195.49 917.475 1196.74 917.391C1197.99 917.49 1199.23 917.139 1200.29 916.39C1200.86 915.893 1201.3 915.245 1201.59 914.505C1201.87 913.764 1201.99 912.956 1201.92 912.154Z" fill="white"/>
<path d="M1230.2 884.653H1231.52L1235.77 919.28H1232.09L1229.58 894.291L1223.03 913.221H1221.36L1214.82 894.291L1212.31 919.28H1208.61L1212.89 884.653H1214.22L1222.25 907.212L1230.2 884.653Z" fill="white"/>
<path d="M1241.26 917.868C1240.45 917.225 1239.8 916.366 1239.36 915.368C1238.92 914.37 1238.71 913.265 1238.75 912.154V884.653H1242.47V912.121C1242.4 912.917 1242.51 913.718 1242.79 914.456C1243.06 915.194 1243.49 915.846 1244.04 916.357C1245.12 917.098 1246.38 917.448 1247.65 917.359C1248.9 917.443 1250.14 917.093 1251.2 916.357C1251.76 915.853 1252.2 915.204 1252.49 914.466C1252.77 913.727 1252.89 912.922 1252.83 912.121V884.653H1256.55V912.121C1256.57 913.229 1256.36 914.328 1255.92 915.323C1255.48 916.318 1254.84 917.18 1254.04 917.835C1252.13 919.171 1249.9 919.83 1247.65 919.723C1245.4 919.865 1243.17 919.217 1241.26 917.868V917.868Z" fill="white"/>
<path d="M1264.06 895.26V919.312H1260.33V884.653H1261.8L1275.02 908.64V884.653H1278.74V919.28H1277.28L1264.06 895.26Z" fill="white"/>
<path d="M1282.61 919.312V884.653H1286.32V919.28L1282.61 919.312Z" fill="white"/>
<path d="M1307.92 911.957C1307.94 913.042 1307.74 914.119 1307.34 915.109C1306.88 916.064 1306.22 916.885 1305.42 917.506V917.506C1303.52 918.817 1301.31 919.447 1299.08 919.312H1290.18V884.653H1299.08C1301.34 884.534 1303.58 885.212 1305.48 886.591C1306.28 887.225 1306.92 888.072 1307.35 889.056C1307.78 890.04 1307.99 891.128 1307.94 892.222L1307.92 911.957ZM1304.23 911.957V892.255C1304.28 891.467 1304.16 890.677 1303.89 889.952C1303.61 889.226 1303.18 888.585 1302.63 888.085V888.085C1301.58 887.339 1300.34 886.988 1299.09 887.083H1293.87V917.014H1299.05C1300.3 917.123 1301.55 916.796 1302.63 916.078C1303.19 915.603 1303.63 914.974 1303.91 914.252C1304.19 913.53 1304.3 912.74 1304.23 911.957Z" fill="white"/>
<path d="M1327.06 919.312L1325.78 913.254H1315.21L1313.95 919.312H1310.25L1318.28 884.653H1322.68L1330.7 919.28L1327.06 919.312ZM1315.67 910.923H1325.33L1320.5 887.132L1315.67 910.923Z" fill="white"/>
<path d="M1352.35 911.957C1352.38 913.042 1352.18 914.119 1351.78 915.109C1351.31 916.069 1350.65 916.89 1349.84 917.506V917.506C1347.94 918.817 1345.73 919.447 1343.5 919.312H1334.53V884.653H1343.43C1345.7 884.537 1347.94 885.214 1349.84 886.591C1350.64 887.225 1351.29 888.072 1351.72 889.056C1352.15 890.04 1352.35 891.128 1352.31 892.222L1352.35 911.957ZM1348.65 911.957V892.255C1348.71 891.467 1348.59 890.677 1348.31 889.952C1348.03 889.226 1347.6 888.585 1347.05 888.085C1345.99 887.342 1344.75 886.992 1343.5 887.083H1338.32V917.014H1343.5C1344.75 917.125 1346.01 916.798 1347.08 916.078C1347.64 915.601 1348.08 914.971 1348.35 914.249C1348.63 913.527 1348.73 912.737 1348.65 911.957Z" fill="white"/>
<path d="M1371.23 916.965V919.312H1356.11V884.653H1371.23V887.001H1359.81V900.3H1367.68V902.713H1359.81V916.997L1371.23 916.965Z" fill="white"/>
<path d="M1402.62 911.957C1402.64 913.042 1402.45 914.119 1402.05 915.109C1401.58 916.069 1400.92 916.89 1400.11 917.506V917.506C1398.2 918.815 1395.99 919.444 1393.75 919.312H1384.86V884.653H1393.75C1396.02 884.537 1398.26 885.214 1400.17 886.591C1400.97 887.225 1401.61 888.072 1402.04 889.056C1402.47 890.04 1402.68 891.128 1402.64 892.222L1402.62 911.957ZM1398.92 911.957V892.255C1398.97 891.467 1398.86 890.677 1398.58 889.952C1398.3 889.226 1397.87 888.585 1397.32 888.085C1396.26 887.342 1395.02 886.992 1393.77 887.083H1388.56V917.014H1393.74C1394.99 917.125 1396.24 916.798 1397.32 916.078C1397.88 915.605 1398.33 914.976 1398.61 914.254C1398.89 913.532 1399 912.74 1398.92 911.957Z" fill="white"/>
<path d="M1421.56 916.965V919.312H1406.47V884.653H1421.59V887.001H1410.14V900.3H1418.01V902.713H1410.14V916.997L1421.56 916.965Z" fill="white"/>
<path d="M1437.86 919.312H1433.45L1425.38 884.653H1429.06L1435.64 916.932L1442.2 884.653H1445.87L1437.86 919.312Z" fill="white"/>
<path d="M1464.82 916.965V919.312H1449.7V884.653H1464.82V887.001H1453.45V900.3H1461.32V902.713H1453.45V916.997L1464.82 916.965Z" fill="white"/>
<path d="M1483.76 916.965V919.312H1468.64V884.653H1472.34V916.932L1483.76 916.965Z" fill="white"/>
<path d="M1503.48 891.828V912.154C1503.52 913.265 1503.31 914.37 1502.87 915.368C1502.43 916.366 1501.78 917.225 1500.97 917.868C1499.02 919.105 1496.82 919.756 1494.58 919.756C1492.33 919.756 1490.13 919.105 1488.18 917.868C1487.37 917.225 1486.72 916.366 1486.28 915.368C1485.84 914.37 1485.63 913.265 1485.67 912.154V891.828C1485.63 890.72 1485.84 889.618 1486.28 888.623C1486.72 887.628 1487.37 886.771 1488.18 886.131C1490.13 884.904 1492.34 884.26 1494.58 884.26C1496.81 884.26 1499.02 884.904 1500.97 886.131C1501.78 886.771 1502.43 887.628 1502.87 888.623C1503.31 889.618 1503.52 890.72 1503.48 891.828V891.828ZM1499.75 912.154V891.828C1499.82 891.028 1499.7 890.223 1499.42 889.486C1499.13 888.748 1498.69 888.103 1498.12 887.609C1497.06 886.853 1495.82 886.502 1494.57 886.607C1493.31 886.519 1492.07 886.869 1491 887.609C1490.45 888.112 1490.01 888.76 1489.73 889.495C1489.45 890.23 1489.33 891.031 1489.39 891.828V912.154C1489.33 912.957 1489.45 913.762 1489.74 914.501C1490.02 915.239 1490.47 915.888 1491.03 916.39C1492.09 917.125 1493.32 917.475 1494.57 917.391C1495.82 917.49 1497.06 917.139 1498.12 916.39C1498.69 915.893 1499.13 915.245 1499.42 914.505C1499.7 913.764 1499.82 912.956 1499.75 912.154V912.154Z" fill="white"/>
<path d="M1525.09 896.409C1525.14 897.516 1524.94 898.62 1524.51 899.615C1524.07 900.61 1523.41 901.462 1522.59 902.09C1520.69 903.453 1518.45 904.119 1516.19 903.994H1511.01V919.312H1507.3V884.653H1516.19C1518.46 884.537 1520.7 885.214 1522.61 886.591C1523.42 887.217 1524.07 888.062 1524.5 889.047C1524.93 890.033 1525.14 891.125 1525.09 892.222V896.409ZM1521.38 896.409V892.255C1521.43 891.467 1521.31 890.677 1521.03 889.952C1520.75 889.226 1520.32 888.585 1519.77 888.085C1518.71 887.342 1517.47 886.992 1516.22 887.083H1511.04V901.696H1516.22C1517.47 901.779 1518.71 901.43 1519.77 900.694C1520.34 900.182 1520.78 899.523 1521.05 898.776C1521.33 898.028 1521.44 897.215 1521.38 896.409Z" fill="white"/>
<path d="M1544.03 916.965V919.312H1528.91V884.653H1544.03V887.001H1532.61V900.3H1540.49V902.713H1532.61V916.997L1544.03 916.965Z" fill="white"/>
<path d="M1563.17 886.624C1563.98 887.249 1564.63 888.095 1565.06 889.08C1565.5 890.065 1565.7 891.158 1565.65 892.255V896.36C1565.7 897.463 1565.5 898.563 1565.06 899.556C1564.63 900.549 1563.98 901.403 1563.17 902.04C1562.93 902.245 1562.68 902.421 1562.41 902.566L1561.23 903.222L1565.04 919.263H1561.32L1557.68 903.945H1551.63V919.312H1547.92V884.653H1556.81C1559.07 884.532 1561.31 885.21 1563.2 886.591L1563.17 886.624ZM1561.94 896.36V892.255C1561.99 891.467 1561.87 890.677 1561.59 889.951C1561.31 889.226 1560.88 888.585 1560.34 888.085C1559.28 887.342 1558.03 886.992 1556.79 887.083H1551.6V901.646H1556.79C1558.04 901.733 1559.28 901.377 1560.34 900.628C1560.9 900.118 1561.34 899.462 1561.61 898.717C1561.89 897.973 1562 897.163 1561.94 896.36V896.36Z" fill="white"/>
<path d="M1584.77 886.131C1585.58 886.771 1586.23 887.628 1586.67 888.623C1587.11 889.618 1587.32 890.72 1587.28 891.828V893.322H1583.56V891.828C1583.63 891.027 1583.51 890.221 1583.22 889.484C1582.93 888.747 1582.49 888.102 1581.92 887.609C1580.87 886.853 1579.63 886.502 1578.38 886.607C1577.13 886.509 1575.89 886.86 1574.83 887.609C1574.27 888.111 1573.83 888.758 1573.55 889.493C1573.26 890.228 1573.14 891.03 1573.2 891.828V892.764C1573.21 893.357 1573.28 893.947 1573.42 894.521C1573.61 895.253 1573.92 895.942 1574.33 896.557C1574.86 897.345 1575.51 898.028 1576.25 898.576C1577.12 899.129 1578.02 899.612 1578.95 900.021C1580.44 900.643 1581.87 901.424 1583.23 902.352C1584.4 903.093 1585.38 904.159 1586.08 905.447C1586.78 906.735 1587.17 908.202 1587.22 909.708V912.105C1587.26 913.216 1587.05 914.32 1586.61 915.318C1586.17 916.316 1585.52 917.176 1584.71 917.818C1582.76 919.056 1580.56 919.707 1578.31 919.707C1576.07 919.707 1573.87 919.056 1571.92 917.818C1571.11 917.176 1570.46 916.316 1570.02 915.318C1569.58 914.32 1569.37 913.216 1569.41 912.105V908.985H1573.14V912.105C1573.08 912.906 1573.2 913.711 1573.48 914.449C1573.77 915.188 1574.21 915.837 1574.77 916.341C1575.83 917.078 1577.07 917.428 1578.32 917.342C1579.57 917.437 1580.81 917.086 1581.86 916.341C1582.43 915.844 1582.88 915.197 1583.16 914.457C1583.45 913.717 1583.57 912.908 1583.5 912.105V909.708C1583.49 909.114 1583.41 908.524 1583.27 907.951C1583.08 907.215 1582.77 906.521 1582.37 905.899C1581.85 905.1 1581.2 904.406 1580.47 903.846C1580.2 903.662 1579.93 903.492 1579.66 903.337L1577.54 902.254C1576.13 901.634 1574.76 900.888 1573.45 900.021C1572.26 899.129 1571.26 897.958 1570.51 896.589C1569.87 895.432 1569.53 894.095 1569.53 892.731V891.795C1569.49 890.687 1569.7 889.585 1570.14 888.59C1570.57 887.595 1571.23 886.738 1572.04 886.098C1573.99 884.871 1576.19 884.227 1578.43 884.227C1580.67 884.227 1582.87 884.871 1584.83 886.098L1584.77 886.131Z" fill="white"/>
<path d="M1618.62 896.409C1618.68 897.517 1618.47 898.623 1618.03 899.619C1617.59 900.614 1616.93 901.465 1616.11 902.09C1614.21 903.456 1611.98 904.122 1609.72 903.994H1604.54V919.312H1600.83V884.653H1609.72C1611.99 884.537 1614.23 885.214 1616.14 886.591C1616.94 887.223 1617.59 888.07 1618.02 889.053C1618.45 890.037 1618.66 891.126 1618.62 892.222V896.409ZM1614.91 896.409V892.255C1614.96 891.467 1614.84 890.677 1614.56 889.952C1614.28 889.226 1613.85 888.585 1613.31 888.085C1612.25 887.339 1611.01 886.988 1609.77 887.083H1604.59V901.696H1609.77C1611.01 901.779 1612.25 901.429 1613.31 900.694C1613.87 900.185 1614.32 899.528 1614.6 898.78C1614.89 898.033 1615 897.218 1614.94 896.409H1614.91Z" fill="white"/>
<path d="M1640.25 891.828V912.154C1640.29 913.265 1640.08 914.37 1639.64 915.368C1639.2 916.366 1638.55 917.225 1637.74 917.868C1635.79 919.105 1633.58 919.756 1631.34 919.756C1629.1 919.756 1626.9 919.105 1624.95 917.868C1624.14 917.225 1623.48 916.366 1623.04 915.368C1622.61 914.37 1622.4 913.265 1622.44 912.154V891.828C1622.4 890.72 1622.61 889.618 1623.05 888.623C1623.48 887.628 1624.14 886.771 1624.95 886.131C1626.9 884.904 1629.1 884.26 1631.34 884.26C1633.58 884.26 1635.78 884.904 1637.74 886.131C1638.55 886.771 1639.2 887.628 1639.64 888.623C1640.08 889.618 1640.29 890.72 1640.25 891.828V891.828ZM1636.52 912.154V891.828C1636.58 891.028 1636.47 890.223 1636.18 889.486C1635.9 888.748 1635.45 888.103 1634.89 887.609C1633.83 886.853 1632.58 886.502 1631.33 886.607C1630.08 886.519 1628.83 886.869 1627.77 887.609C1627.21 888.112 1626.77 888.76 1626.49 889.495C1626.21 890.23 1626.1 891.031 1626.15 891.828V912.154C1626.1 912.957 1626.22 913.762 1626.5 914.501C1626.79 915.239 1627.23 915.888 1627.8 916.39C1628.85 917.125 1630.09 917.475 1631.33 917.391C1632.58 917.49 1633.83 917.139 1634.89 916.39C1635.45 915.893 1635.9 915.245 1636.19 914.505C1636.47 913.764 1636.58 912.956 1636.52 912.154V912.154Z" fill="white"/>
<path d="M1659.38 886.624C1660.18 887.249 1660.83 888.095 1661.27 889.08C1661.7 890.065 1661.9 891.158 1661.86 892.255V896.36C1661.9 897.463 1661.7 898.563 1661.27 899.556C1660.83 900.549 1660.18 901.403 1659.38 902.04C1659.14 902.245 1658.88 902.421 1658.61 902.566L1657.44 903.222L1661.24 919.263H1657.51L1653.87 903.896H1647.82V919.263H1644.11V884.653H1653C1655.27 884.534 1657.5 885.212 1659.4 886.591L1659.38 886.624ZM1658.14 896.36V892.255C1658.2 891.469 1658.08 890.68 1657.8 889.954C1657.53 889.228 1657.1 888.587 1656.56 888.085V888.085C1655.5 887.342 1654.25 886.992 1653 887.083H1647.82V901.646H1653C1654.25 901.733 1655.5 901.377 1656.56 900.628C1657.11 900.116 1657.55 899.459 1657.82 898.715C1658.1 897.971 1658.21 897.162 1658.14 896.36Z" fill="white"/>
<path d="M1663.56 887.034V884.653H1681.48V887.001H1674.36V919.28H1670.72V887.034H1663.56Z" fill="white"/>
<path d="M1687.81 917.868C1687 917.225 1686.35 916.366 1685.91 915.368C1685.47 914.37 1685.26 913.265 1685.3 912.154V884.653H1689.02V912.121C1688.95 912.917 1689.06 913.718 1689.33 914.456C1689.61 915.194 1690.04 915.846 1690.59 916.357C1691.67 917.098 1692.93 917.448 1694.2 917.359C1695.45 917.443 1696.69 917.093 1697.75 916.357C1698.31 915.853 1698.75 915.204 1699.04 914.466C1699.32 913.727 1699.44 912.922 1699.38 912.121V884.653H1703.11V912.121C1703.13 913.229 1702.92 914.328 1702.48 915.323C1702.05 916.318 1701.4 917.18 1700.6 917.835C1698.68 919.172 1696.45 919.83 1694.2 919.723C1691.95 919.865 1689.72 919.217 1687.81 917.868V917.868Z" fill="white"/>
<path d="M1722.21 886.131C1723.02 886.771 1723.67 887.628 1724.11 888.623C1724.55 889.618 1724.76 890.72 1724.72 891.828V893.47H1721.01V891.828C1721.07 891.035 1720.96 890.237 1720.68 889.502C1720.41 888.767 1719.98 888.118 1719.43 887.609C1718.33 886.95 1717.1 886.606 1715.85 886.606C1714.59 886.606 1713.36 886.95 1712.26 887.609C1711.7 888.112 1711.26 888.76 1710.98 889.495C1710.7 890.23 1710.58 891.031 1710.64 891.828V912.154C1710.58 912.955 1710.7 913.76 1710.98 914.498C1711.27 915.237 1711.71 915.886 1712.27 916.39C1713.33 917.126 1714.57 917.475 1715.82 917.392C1717.09 917.48 1718.35 917.131 1719.43 916.39C1719.98 915.879 1720.41 915.227 1720.69 914.489C1720.96 913.751 1721.07 912.95 1721.01 912.154V903.19H1717.53V900.809H1724.72V912.154C1724.76 913.265 1724.55 914.37 1724.11 915.368C1723.68 916.366 1723.02 917.225 1722.21 917.868C1720.31 919.228 1718.08 919.888 1715.82 919.756C1713.57 919.863 1711.34 919.205 1709.42 917.868C1708.62 917.211 1707.98 916.349 1707.55 915.354C1707.11 914.359 1706.9 913.261 1706.93 912.154V891.828C1706.9 890.724 1707.12 889.631 1707.55 888.639C1707.99 887.648 1708.63 886.788 1709.42 886.131C1711.34 884.807 1713.57 884.155 1715.82 884.259C1718.07 884.129 1720.3 884.783 1722.21 886.131V886.131Z" fill="white"/>
<path d="M1731.05 917.868C1730.24 917.225 1729.58 916.366 1729.14 915.368C1728.7 914.37 1728.5 913.265 1728.54 912.154V884.653H1732.27V912.121C1732.19 912.918 1732.3 913.722 1732.57 914.461C1732.85 915.201 1733.28 915.852 1733.84 916.357C1734.92 917.098 1736.18 917.448 1737.45 917.359C1738.69 917.442 1739.93 917.092 1740.99 916.357C1741.55 915.853 1741.99 915.204 1742.27 914.466C1742.56 913.727 1742.67 912.922 1742.62 912.121V884.653H1746.34V912.121C1746.37 913.23 1746.15 914.328 1745.72 915.323C1745.28 916.318 1744.63 917.18 1743.83 917.835C1741.92 919.17 1739.7 919.828 1737.45 919.723C1735.19 919.868 1732.95 919.219 1731.05 917.868V917.868Z" fill="white"/>
<path d="M1765.28 916.965V919.312H1750.16V884.653H1765.28V887.001H1753.86V900.3H1761.74V902.713H1753.88V916.997L1765.28 916.965Z" fill="white"/>
<path d="M1782.59 886.131C1783.4 886.771 1784.06 887.628 1784.49 888.623C1784.93 889.618 1785.14 890.72 1785.1 891.828V893.322H1781.39V891.828C1781.45 891.027 1781.33 890.221 1781.05 889.484C1780.76 888.747 1780.31 888.102 1779.74 887.609C1778.69 886.853 1777.45 886.502 1776.21 886.607C1774.96 886.509 1773.71 886.86 1772.65 887.609C1772.09 888.111 1771.65 888.758 1771.37 889.493C1771.09 890.228 1770.97 891.03 1771.02 891.828V892.764C1771.03 893.357 1771.11 893.947 1771.24 894.521C1771.44 895.253 1771.75 895.942 1772.15 896.557C1772.69 897.345 1773.34 898.028 1774.08 898.576V898.576C1774.95 899.129 1775.85 899.612 1776.78 900.021C1778.27 900.643 1779.7 901.424 1781.05 902.352C1782.22 903.093 1783.21 904.159 1783.91 905.447C1784.6 906.735 1785 908.202 1785.04 909.708V912.105C1785.08 913.216 1784.88 914.32 1784.44 915.318C1784 916.316 1783.34 917.176 1782.53 917.818C1780.58 919.056 1778.38 919.707 1776.14 919.707C1773.9 919.707 1771.69 919.056 1769.75 917.818C1768.93 917.176 1768.28 916.316 1767.84 915.318C1767.4 914.32 1767.19 913.216 1767.24 912.105V908.985H1770.96V912.105C1770.91 912.906 1771.02 913.711 1771.31 914.449C1771.59 915.188 1772.03 915.837 1772.59 916.341C1773.66 917.078 1774.9 917.428 1776.15 917.342C1777.39 917.437 1778.63 917.086 1779.68 916.341C1780.25 915.844 1780.7 915.197 1780.99 914.457C1781.28 913.717 1781.39 912.908 1781.33 912.105V909.708C1781.31 909.114 1781.23 908.524 1781.09 907.951C1780.9 907.215 1780.6 906.521 1780.2 905.899C1779.67 905.1 1779.02 904.406 1778.29 903.846V903.846C1778.03 903.662 1777.76 903.492 1777.48 903.337L1775.37 902.254C1773.95 901.634 1772.58 900.888 1771.27 900.021C1770.08 899.129 1769.08 897.958 1768.34 896.589C1767.69 895.432 1767.35 894.095 1767.35 892.731V891.795C1767.31 890.687 1767.52 889.585 1767.96 888.59C1768.4 887.595 1769.05 886.738 1769.86 886.098C1771.82 884.871 1774.02 884.227 1776.26 884.227C1778.5 884.227 1780.7 884.871 1782.65 886.098L1782.59 886.131Z" fill="white"/>
<path d="M1804.04 916.965V919.312H1788.92V884.653H1804.04V887.001H1792.57V900.3H1800.44V902.713H1792.57V916.997L1804.04 916.965Z" fill="white"/>
<path d="M1821.35 886.131C1822.16 886.771 1822.81 887.628 1823.25 888.623C1823.69 889.618 1823.9 890.72 1823.86 891.828V893.322H1820.15V891.828C1820.21 891.027 1820.09 890.221 1819.8 889.484C1819.52 888.747 1819.07 888.102 1818.5 887.609C1817.45 886.853 1816.21 886.502 1814.96 886.607C1813.71 886.509 1812.47 886.86 1811.41 887.609C1810.85 888.111 1810.41 888.758 1810.13 889.493C1809.84 890.228 1809.72 891.03 1809.78 891.828V892.764C1809.79 893.359 1809.87 893.949 1810.02 894.521C1810.2 895.256 1810.5 895.946 1810.91 896.557C1811.45 897.345 1812.1 898.028 1812.83 898.576V898.576C1813.7 899.129 1814.61 899.612 1815.54 900.021C1817.02 900.643 1818.45 901.424 1819.81 902.352C1820.98 903.093 1821.96 904.159 1822.66 905.447C1823.36 906.735 1823.75 908.202 1823.8 909.708V912.105C1823.84 913.216 1823.63 914.32 1823.19 915.318C1822.76 916.316 1822.1 917.176 1821.29 917.818C1819.34 919.056 1817.14 919.707 1814.9 919.707C1812.66 919.707 1810.45 919.056 1808.5 917.818C1807.69 917.176 1807.04 916.316 1806.6 915.318C1806.16 914.32 1805.95 913.216 1805.99 912.105V908.985H1809.72V912.105C1809.66 912.906 1809.78 913.711 1810.07 914.449C1810.35 915.188 1810.79 915.837 1811.35 916.341C1812.41 917.078 1813.66 917.428 1814.9 917.342C1816.15 917.437 1817.39 917.086 1818.44 916.341C1819.01 915.844 1819.46 915.197 1819.75 914.457C1820.03 913.717 1820.15 912.908 1820.09 912.105V909.708C1820.07 909.114 1819.99 908.524 1819.85 907.951C1819.66 907.252 1819.38 906.593 1819 905.997C1818.47 905.198 1817.83 904.504 1817.09 903.945V903.945C1816.83 903.76 1816.56 903.59 1816.28 903.436L1814.17 902.352C1812.75 901.733 1811.38 900.986 1810.07 900.119C1808.88 899.227 1807.88 898.056 1807.14 896.688C1806.49 895.531 1806.15 894.194 1806.15 892.83V891.894C1806.11 890.785 1806.32 889.683 1806.76 888.688C1807.2 887.693 1807.85 886.837 1808.66 886.197C1810.62 884.97 1812.82 884.325 1815.06 884.325C1817.3 884.325 1819.5 884.97 1821.45 886.197L1821.35 886.131Z" fill="white"/>
</g>
<defs>
<clipPath id="clip0">
<rect width="1920" height="995.127" fill="white"/>
</clipPath>
</defs>
</svg>
