<svg id="Layer_1" data-name="Layer 1" xmlns="http://www.w3.org/2000/svg" viewBox="0 0 893 349"><path d="M143.41,93.13c48.32,0,88.8,34.15,98.68,79.7l-60.85,21.51a37.83,37.83,0,0,0-75.66,0H42.4A101,101,0,0,1,143.41,93.13Z" style="fill:#fff"/><path d="M105.58,194.34a37.83,37.83,0,0,0,75.66,0v-109l31.47-31.7,31.71,31.69v109a101,101,0,0,1-202,0Z" style="fill:#fff"/><path d="M366,242.47q-13.06,9.08-34.78,9.09h-50V86.72h50q21.51,0,35.21,9.71,14.82,10.65,14.83,29.87v86.6a37.49,37.49,0,0,1-3.56,16.61l-.1.32a36.31,36.31,0,0,1-11.49,12.64ZM312,109.59v119h19.22c6.61,0,11.32-1,14.1-2.92q5.12-3.35,5.12-12.75V126.3q0-9.39-5.33-13.37l-.1-.1q-4.39-3.24-13.79-3.24Z" style="fill:#fff"/><path d="M487,228.57v23H400.06V86.72H487v22.87h-56.1v45.86h38.64v23H430.88v50.14Z" style="fill:#fff"/><path d="M580.15,251.56H548.6L505.77,86.72h31.34l27.27,119.92L591.64,86.72h31.24Z" style="fill:#fff"/><path d="M672.49,184.18v67.38H641.67V86.72h50q21.42,0,35.21,9.71,14.72,10.65,14.72,29.87v18.29q0,19.42-14.83,30.08-13.37,9.51-35.1,9.51Zm0-74.59V161.3h19.22q9.3,0,13.79-3.34,5.43-3.77,5.43-13.37V126.3q0-9.39-5.32-13.37l-.11-.1q-4.49-3.24-13.79-3.24Z" style="fill:#fff"/><path d="M750,109.59V86.72H850.6v22.87h-35v142H784.9v-142Z" style="fill:#fff"/><path d="M411.77,269.9a4.05,4.05,0,0,1,1.71,3.47v1H411v-1a3,3,0,0,0-1.07-2.57,4.14,4.14,0,0,0-2.46-.61,4.06,4.06,0,0,0-2.42.61,3,3,0,0,0-1.11,2.57v12.38a3,3,0,0,0,1.11,2.58,4.13,4.13,0,0,0,2.42.61,4.21,4.21,0,0,0,2.46-.61,3,3,0,0,0,1.07-2.58v-1.88h2.53v1.88a4.06,4.06,0,0,1-1.71,3.48,7.35,7.35,0,0,1-4.35,1.15,7.62,7.62,0,0,1-4.36-1.15,4.18,4.18,0,0,1-1.7-3.48V273.37a4.2,4.2,0,0,1,1.7-3.47,7.7,7.7,0,0,1,4.36-1.14A7.42,7.42,0,0,1,411.77,269.9Z" style="fill:#fff"/><path d="M428.21,273.37v12.38a4.06,4.06,0,0,1-1.71,3.48,8.82,8.82,0,0,1-8.71,0,4.06,4.06,0,0,1-1.71-3.48V273.37a4.05,4.05,0,0,1,1.71-3.47,8.89,8.89,0,0,1,8.71,0A4.05,4.05,0,0,1,428.21,273.37Zm-2.54,12.38V273.37a2.92,2.92,0,0,0-1.11-2.57,3.94,3.94,0,0,0-2.42-.61,4.12,4.12,0,0,0-2.43.61,3,3,0,0,0-1.1,2.57v12.38a3,3,0,0,0,1.12,2.58,4.1,4.1,0,0,0,2.41.61,4,4,0,0,0,2.42-.61A2.93,2.93,0,0,0,425.67,285.75Z" style="fill:#fff"/><path d="M444.93,269h.9l2.9,21.09h-2.51l-1.71-15.22-4.46,11.53h-1.14l-4.45-11.53-1.71,15.22h-2.52L433.14,269h.91l5.47,13.74Z" style="fill:#fff"/><path d="M452.47,289.23a4.06,4.06,0,0,1-1.71-3.48V269h2.53v16.73a3,3,0,0,0,1.07,2.58,4.21,4.21,0,0,0,2.46.61,4.13,4.13,0,0,0,2.42-.61,3,3,0,0,0,1.11-2.58V269h2.53v16.73a4.18,4.18,0,0,1-1.71,3.48,7.59,7.59,0,0,1-4.35,1.15A7.35,7.35,0,0,1,452.47,289.23Z" style="fill:#fff"/><path d="M468,275.46v14.65h-2.54V269h1l9,14.61V269H478v21.09h-1Z" style="fill:#fff"/><path d="M480.63,290.11V269h2.53v21.09Z" style="fill:#fff"/><path d="M497.87,285.63a4.45,4.45,0,0,1-.39,1.92,4.27,4.27,0,0,1-1.31,1.46h0a7.46,7.46,0,0,1-4.32,1.1h-6.06V269h6.06a7.37,7.37,0,0,1,4.36,1.18,4,4,0,0,1,1.68,3.43Zm-2.51,0v-12a3,3,0,0,0-1.09-2.54l0,0a4,4,0,0,0-2.41-.61H488.3v18.23h3.53a4.14,4.14,0,0,0,2.44-.57A2.79,2.79,0,0,0,495.36,285.63Z" style="fill:#fff"/><path d="M510.91,290.11l-.87-3.69h-7.2l-.86,3.69h-2.52L504.93,269h3l5.46,21.09ZM503.15,285h6.58l-3.29-14.49Z" style="fill:#fff"/><path d="M528.14,285.63a4.45,4.45,0,0,1-.39,1.92,4.2,4.2,0,0,1-1.32,1.46h0a7.46,7.46,0,0,1-4.32,1.1H516V269h6.06a7.43,7.43,0,0,1,4.37,1.18,4,4,0,0,1,1.68,3.43Zm-2.52,0v-12a3,3,0,0,0-1.09-2.54l0,0a4.06,4.06,0,0,0-2.42-.61h-3.53v18.23h3.53a4.12,4.12,0,0,0,2.44-.57A2.77,2.77,0,0,0,525.62,285.63Z" style="fill:#fff"/><path d="M541,288.68v1.43h-10.3V269H541v1.43h-7.78v8.1h5.36V280h-5.36v8.7Z" style="fill:#fff"/><path d="M562.38,285.63a4.45,4.45,0,0,1-.39,1.92,4.2,4.2,0,0,1-1.32,1.46h0a7.52,7.52,0,0,1-4.33,1.1h-6.06V269h6.06a7.43,7.43,0,0,1,4.37,1.18,4,4,0,0,1,1.68,3.43Zm-2.52,0v-12a3,3,0,0,0-1.09-2.54l0,0a4.06,4.06,0,0,0-2.42-.61H552.8v18.23h3.53a4.12,4.12,0,0,0,2.44-.57A2.77,2.77,0,0,0,559.86,285.63Z" style="fill:#fff"/><path d="M575.28,288.68v1.43H565V269h10.3v1.43H567.5v8.1h5.36V280H567.5v8.7Z" style="fill:#fff"/><path d="M586.38,290.11h-3L577.88,269h2.51l4.48,19.66L589.34,269h2.5Z" style="fill:#fff"/><path d="M604.75,288.68v1.43h-10.3V269h10.3v1.43H597v8.1h5.36V280H597v8.7Z" style="fill:#fff"/><path d="M617.65,288.68v1.43h-10.3V269h2.52v19.66Z" style="fill:#fff"/><path d="M631.08,273.37v12.38a4.06,4.06,0,0,1-1.71,3.48,8.82,8.82,0,0,1-8.71,0,4.06,4.06,0,0,1-1.71-3.48V273.37a4.05,4.05,0,0,1,1.71-3.47,8.89,8.89,0,0,1,8.71,0A4.05,4.05,0,0,1,631.08,273.37Zm-2.54,12.38V273.37a2.92,2.92,0,0,0-1.11-2.57,3.94,3.94,0,0,0-2.42-.61,4.12,4.12,0,0,0-2.43.61,3,3,0,0,0-1.1,2.57v12.38a3,3,0,0,0,1.12,2.58,4.1,4.1,0,0,0,2.41.61,4,4,0,0,0,2.42-.61A2.93,2.93,0,0,0,628.54,285.75Z" style="fill:#fff"/><path d="M645.8,276.16a3.93,3.93,0,0,1-1.7,3.46,7.41,7.41,0,0,1-4.36,1.16h-3.53v9.33h-2.53V269h6.06a7.43,7.43,0,0,1,4.37,1.18,3.94,3.94,0,0,1,1.69,3.43Zm-2.53,0v-2.53a3,3,0,0,0-1.09-2.54l0,0a4.06,4.06,0,0,0-2.42-.61h-3.53v8.9h3.53a4.13,4.13,0,0,0,2.42-.61A3,3,0,0,0,643.27,276.16Z" style="fill:#fff"/><path d="M658.7,288.68v1.43H648.4V269h10.3v1.43h-7.78v8.1h5.37V280h-5.37v8.7Z" style="fill:#fff"/><path d="M671.74,270.2a3.94,3.94,0,0,1,1.69,3.43v2.5a4,4,0,0,1-1.69,3.46l0,0a2.88,2.88,0,0,1-.52.32l-.8.4,2.59,9.77h-2.53L668,280.75h-4.12v9.36h-2.53V269h6.06a7.32,7.32,0,0,1,4.35,1.18Zm-.84,5.93v-2.5a3,3,0,0,0-1.09-2.54l0,0a4.06,4.06,0,0,0-2.42-.61h-3.53v8.87h3.53a4.06,4.06,0,0,0,2.42-.62A3,3,0,0,0,670.9,276.13Z" style="fill:#fff"/><path d="M686.45,269.9a4.05,4.05,0,0,1,1.71,3.47v.91h-2.53v-.91a2.93,2.93,0,0,0-1.12-2.57,3.91,3.91,0,0,0-2.41-.61,4,4,0,0,0-2.42.61,3,3,0,0,0-1.11,2.57v.57a4.49,4.49,0,0,0,.15,1.07,4,4,0,0,0,.62,1.24,5.4,5.4,0,0,0,1.31,1.23l0,0a14.29,14.29,0,0,0,1.84.88,16.92,16.92,0,0,1,2.91,1.42,5.36,5.36,0,0,1,2.72,4.48v1.46a4.06,4.06,0,0,1-1.71,3.48,8.82,8.82,0,0,1-8.71,0,4.06,4.06,0,0,1-1.71-3.48v-1.9h2.54v1.9a3,3,0,0,0,1.11,2.58,4.11,4.11,0,0,0,2.42.61,4,4,0,0,0,2.41-.61,2.94,2.94,0,0,0,1.12-2.58v-1.46a4.55,4.55,0,0,0-.16-1.07,4.11,4.11,0,0,0-.61-1.25,5.39,5.39,0,0,0-1.3-1.25h0a6.26,6.26,0,0,0-.55-.31l-1.44-.66h0a19.18,19.18,0,0,1-2.79-1.36,6.73,6.73,0,0,1-2-2.09,4.42,4.42,0,0,1-.67-2.35v-.57a4.05,4.05,0,0,1,1.71-3.47,8.89,8.89,0,0,1,8.71,0Z" style="fill:#fff"/><path d="M709.51,276.16a3.92,3.92,0,0,1-1.71,3.46,7.35,7.35,0,0,1-4.35,1.16h-3.53v9.33h-2.53V269h6.06a7.43,7.43,0,0,1,4.37,1.18,4,4,0,0,1,1.69,3.43Zm-2.53,0v-2.53a3,3,0,0,0-1.09-2.54l0,0a4,4,0,0,0-2.41-.61h-3.53v8.9h3.53a4.1,4.1,0,0,0,2.41-.61A3,3,0,0,0,707,276.16Z" style="fill:#fff"/><path d="M724.24,273.37v12.38a4.06,4.06,0,0,1-1.71,3.48,8.82,8.82,0,0,1-8.71,0,4.06,4.06,0,0,1-1.71-3.48V273.37a4.05,4.05,0,0,1,1.71-3.47,8.89,8.89,0,0,1,8.71,0A4.05,4.05,0,0,1,724.24,273.37Zm-2.54,12.38V273.37a2.92,2.92,0,0,0-1.11-2.57,3.94,3.94,0,0,0-2.42-.61,4.12,4.12,0,0,0-2.43.61,3,3,0,0,0-1.1,2.57v12.38a3,3,0,0,0,1.12,2.58,4.1,4.1,0,0,0,2.41.61,4,4,0,0,0,2.42-.61A2.93,2.93,0,0,0,721.7,285.75Z" style="fill:#fff"/><path d="M737.27,270.2a3.94,3.94,0,0,1,1.69,3.43v2.5a4,4,0,0,1-1.69,3.46l0,0a2.88,2.88,0,0,1-.52.32l-.8.4,2.59,9.77H736l-2.48-9.36h-4.12v9.36h-2.53V269h6.06a7.37,7.37,0,0,1,4.36,1.18Zm-.84,5.93v-2.5a3,3,0,0,0-1.08-2.54l0,0a4.06,4.06,0,0,0-2.42-.61h-3.53v8.87h3.53a4.06,4.06,0,0,0,2.42-.62A3,3,0,0,0,736.43,276.13Z" style="fill:#fff"/><path d="M740.12,270.45V269h12.21v1.43h-4.85v19.66H745V270.45Z" style="fill:#fff"/><path d="M756.64,289.23a4.06,4.06,0,0,1-1.71-3.48V269h2.53v16.73a3,3,0,0,0,1.07,2.58,4.21,4.21,0,0,0,2.46.61,4.13,4.13,0,0,0,2.42-.61,3,3,0,0,0,1.11-2.58V269h2.54v16.73a4.18,4.18,0,0,1-1.71,3.48,7.62,7.62,0,0,1-4.36,1.15A7.35,7.35,0,0,1,756.64,289.23Z" style="fill:#fff"/><path d="M780.07,269.9a4.05,4.05,0,0,1,1.71,3.47v1h-2.53v-1a3,3,0,0,0-1.07-2.57,5.2,5.2,0,0,0-4.89,0,3,3,0,0,0-1.1,2.57v12.38a3,3,0,0,0,1.11,2.58,4.13,4.13,0,0,0,2.42.61,4.21,4.21,0,0,0,2.46-.61,3,3,0,0,0,1.07-2.58v-5.46h-2.37v-1.45h4.9v6.91a4.06,4.06,0,0,1-1.71,3.48,7.35,7.35,0,0,1-4.35,1.15,7.62,7.62,0,0,1-4.36-1.15,4.18,4.18,0,0,1-1.7-3.48V273.37a4.2,4.2,0,0,1,1.7-3.47,7.7,7.7,0,0,1,4.36-1.14A7.42,7.42,0,0,1,780.07,269.9Z" style="fill:#fff"/><path d="M786.09,289.23a4.06,4.06,0,0,1-1.71-3.48V269h2.54v16.73a2.94,2.94,0,0,0,1.07,2.58,4.21,4.21,0,0,0,2.46.61,4.1,4.1,0,0,0,2.41-.61,3,3,0,0,0,1.11-2.58V269h2.54v16.73a4.18,4.18,0,0,1-1.71,3.48,7.61,7.61,0,0,1-4.35,1.15A7.36,7.36,0,0,1,786.09,289.23Z" style="fill:#fff"/><path d="M809.41,288.68v1.43h-10.3V269h10.3v1.43h-7.78v8.1H807V280h-5.36v8.7Z" style="fill:#fff"/><path d="M821.2,269.9a4.05,4.05,0,0,1,1.71,3.47v.91h-2.53v-.91a2.93,2.93,0,0,0-1.12-2.57,3.91,3.91,0,0,0-2.41-.61,4,4,0,0,0-2.42.61,3,3,0,0,0-1.11,2.57v.57a4.49,4.49,0,0,0,.15,1.07,4,4,0,0,0,.62,1.24,5.4,5.4,0,0,0,1.31,1.23l0,0a14.29,14.29,0,0,0,1.84.88,16.92,16.92,0,0,1,2.91,1.42,5.36,5.36,0,0,1,2.72,4.48v1.46a4.06,4.06,0,0,1-1.71,3.48,8.82,8.82,0,0,1-8.71,0,4.06,4.06,0,0,1-1.71-3.48v-1.9h2.54v1.9a3,3,0,0,0,1.11,2.58,4.11,4.11,0,0,0,2.42.61,4,4,0,0,0,2.41-.61,2.94,2.94,0,0,0,1.12-2.58v-1.46a4.55,4.55,0,0,0-.16-1.07,4.11,4.11,0,0,0-.61-1.25,5.39,5.39,0,0,0-1.3-1.25h0a6.26,6.26,0,0,0-.55-.31l-1.44-.66h0a19.18,19.18,0,0,1-2.79-1.36,6.73,6.73,0,0,1-2-2.09,4.42,4.42,0,0,1-.67-2.35v-.57a4.05,4.05,0,0,1,1.71-3.47,8.89,8.89,0,0,1,8.71,0Z" style="fill:#fff"/><path d="M835.81,288.68v1.43h-10.3V269h10.3v1.43H828v8.1h5.36V280H828v8.7Z" style="fill:#fff"/><path d="M847.6,269.9a4.05,4.05,0,0,1,1.71,3.47v.91h-2.53v-.91a2.93,2.93,0,0,0-1.12-2.57,3.91,3.91,0,0,0-2.41-.61,4,4,0,0,0-2.42.61,3,3,0,0,0-1.11,2.57v.57a4.08,4.08,0,0,0,.16,1.07,3.75,3.75,0,0,0,.61,1.24,5.4,5.4,0,0,0,1.31,1.23l0,0a14.29,14.29,0,0,0,1.84.88,16.92,16.92,0,0,1,2.91,1.42,5.36,5.36,0,0,1,2.72,4.48v1.46a4.06,4.06,0,0,1-1.71,3.48,8.82,8.82,0,0,1-8.71,0,4.06,4.06,0,0,1-1.71-3.48v-1.9h2.54v1.9a3,3,0,0,0,1.11,2.58,4.11,4.11,0,0,0,2.42.61,4,4,0,0,0,2.41-.61,2.94,2.94,0,0,0,1.12-2.58v-1.46a4.55,4.55,0,0,0-.16-1.07A4.11,4.11,0,0,0,846,282a5.39,5.39,0,0,0-1.3-1.25h0a6.26,6.26,0,0,0-.55-.31l-1.44-.66h0a19.18,19.18,0,0,1-2.79-1.36,6.73,6.73,0,0,1-2-2.09,4.42,4.42,0,0,1-.67-2.35v-.57a4.05,4.05,0,0,1,1.71-3.47,8.89,8.89,0,0,1,8.71,0Z" style="fill:#fff"/></svg>