<svg width="893" height="349" viewBox="0 0 893 349" fill="none" xmlns="http://www.w3.org/2000/svg">
<path d="M143.4 93.13C166.471 93.1737 188.835 101.1 206.784 115.596C224.733 130.091 237.19 150.285 242.09 172.83L181.24 194.34C181.24 184.307 177.254 174.685 170.16 167.59C163.065 160.496 153.443 156.51 143.41 156.51C133.377 156.51 123.755 160.496 116.66 167.59C109.566 174.685 105.58 184.307 105.58 194.34H42.39C42.369 181.06 44.9659 167.906 50.0322 155.63C55.0985 143.354 62.5349 132.197 71.9161 122.798C81.2973 113.398 92.4394 105.939 104.705 100.849C116.971 95.7581 130.12 93.1352 143.4 93.13V93.13Z" fill="url(#paint0_radial)"/>
<path d="M105.58 194.34C105.58 204.373 109.566 213.995 116.66 221.09C123.755 228.184 133.377 232.17 143.41 232.17C153.443 232.17 163.065 228.184 170.16 221.09C177.254 213.995 181.24 204.373 181.24 194.34V85.34L212.71 53.64L244.42 85.33V194.33C244.42 221.117 233.779 246.807 214.838 265.748C195.897 284.689 170.207 295.33 143.42 295.33C116.633 295.33 90.9434 284.689 72.0022 265.748C53.061 246.807 42.42 221.117 42.42 194.33L105.58 194.34Z" fill="url(#paint1_linear)"/>
<path d="M366 242.47C357.293 248.523 345.7 251.553 331.22 251.56H281.22V86.72H331.22C345.56 86.72 357.293 89.9567 366.42 96.43C376.3 103.53 381.247 113.487 381.26 126.3V212.9C381.36 218.636 380.142 224.319 377.7 229.51L377.6 229.83C374.826 234.898 370.884 239.231 366.1 242.47H366ZM312 109.59V228.59H331.22C337.83 228.59 342.54 227.59 345.32 225.67C348.733 223.437 350.44 219.187 350.44 212.92V126.3C350.44 120.04 348.663 115.583 345.11 112.93L345.01 112.83C342.083 110.67 337.487 109.59 331.22 109.59H312Z" fill="white"/>
<path d="M487 228.57V251.57H400.05V86.72H487V109.59H430.88V155.45H469.52V178.45H430.88V228.59L487 228.57Z" fill="white"/>
<path d="M580.15 251.56H548.6L505.77 86.72H537.11L564.37 206.64L591.64 86.72H622.87L580.15 251.56Z" fill="white"/>
<path d="M672.49 184.18V251.56H641.67V86.72H691.67C705.937 86.72 717.673 89.9567 726.88 96.43C736.693 103.53 741.6 113.487 741.6 126.3V144.59C741.6 157.537 736.653 167.563 726.76 174.67C717.86 181.01 706.163 184.18 691.67 184.18H672.49ZM672.49 109.59V161.3H691.71C697.897 161.3 702.493 160.187 705.5 157.96C709.12 155.447 710.93 150.99 710.93 144.59V126.3C710.93 120.04 709.157 115.583 705.61 112.93L705.5 112.83C702.5 110.67 697.903 109.59 691.71 109.59H672.49Z" fill="#0796CE"/>
<path d="M750 109.59V86.72H850.6V109.59H815.6V251.59H784.9V109.59H750Z" fill="#0796CE"/>
<path d="M411.77 269.9C412.322 270.29 412.767 270.812 413.066 271.418C413.365 272.024 413.507 272.695 413.48 273.37V274.37H411V273.37C411.043 272.887 410.968 272.401 410.781 271.953C410.595 271.506 410.303 271.11 409.93 270.8C409.194 270.344 408.334 270.131 407.47 270.19C406.619 270.13 405.771 270.344 405.05 270.8C404.67 271.106 404.37 271.5 404.177 271.948C403.983 272.395 403.902 272.884 403.94 273.37V285.75C403.9 286.238 403.981 286.728 404.174 287.178C404.368 287.628 404.668 288.023 405.05 288.33C405.774 288.779 406.62 288.992 407.47 288.94C408.333 288.994 409.192 288.781 409.93 288.33C410.304 288.019 410.597 287.622 410.784 287.172C410.97 286.723 411.044 286.235 411 285.75V283.87H413.53V285.75C413.558 286.427 413.416 287.1 413.117 287.707C412.819 288.315 412.373 288.839 411.82 289.23C410.526 290.059 409.005 290.461 407.47 290.38C405.934 290.445 404.414 290.044 403.11 289.23C402.564 288.832 402.123 288.308 401.825 287.701C401.527 287.095 401.381 286.425 401.4 285.75V273.37C401.384 272.697 401.532 272.029 401.829 271.425C402.127 270.821 402.566 270.298 403.11 269.9C404.417 269.094 405.935 268.697 407.47 268.76C408.986 268.691 410.487 269.089 411.77 269.9V269.9Z" fill="white"/>
<path d="M428.2 273.37V285.75C428.228 286.426 428.087 287.098 427.79 287.705C427.494 288.313 427.05 288.837 426.5 289.23C425.172 289.984 423.672 290.38 422.145 290.38C420.618 290.38 419.118 289.984 417.79 289.23C417.237 288.839 416.791 288.315 416.493 287.707C416.194 287.1 416.052 286.427 416.08 285.75V273.37C416.053 272.695 416.195 272.024 416.494 271.418C416.793 270.812 417.238 270.29 417.79 269.9C419.12 269.153 420.62 268.76 422.145 268.76C423.67 268.76 425.17 269.153 426.5 269.9C427.049 270.292 427.491 270.815 427.788 271.42C428.085 272.026 428.226 272.696 428.2 273.37V273.37ZM425.67 285.75V273.37C425.715 272.883 425.637 272.392 425.443 271.943C425.249 271.494 424.945 271.101 424.56 270.8C423.841 270.34 422.991 270.126 422.14 270.19C421.286 270.136 420.437 270.349 419.71 270.8C419.332 271.107 419.034 271.501 418.842 271.949C418.651 272.397 418.571 272.885 418.61 273.37V285.75C418.572 286.239 418.654 286.73 418.849 287.179C419.044 287.629 419.347 288.024 419.73 288.33C420.451 288.778 421.293 288.991 422.14 288.94C422.991 289 423.839 288.786 424.56 288.33C424.946 288.027 425.25 287.632 425.444 287.182C425.638 286.731 425.716 286.239 425.67 285.75Z" fill="white"/>
<path d="M444.93 269H445.82L448.73 290.09H446.21L444.51 274.87L440.05 286.4H438.91L434.45 274.87L432.75 290.09H430.23L433.14 269H434.05L439.52 282.74L444.93 269Z" fill="white"/>
<path d="M452.46 289.23C451.91 288.837 451.466 288.313 451.17 287.705C450.873 287.098 450.732 286.426 450.76 285.75V269H453.29V285.73C453.24 286.215 453.312 286.705 453.499 287.155C453.686 287.606 453.982 288.002 454.36 288.31C455.098 288.761 455.957 288.974 456.82 288.92C457.667 288.971 458.509 288.758 459.23 288.31C459.613 288.004 459.916 287.609 460.111 287.159C460.306 286.71 460.388 286.219 460.35 285.73V269H462.88V285.73C462.897 286.405 462.751 287.074 462.453 287.68C462.155 288.286 461.715 288.811 461.17 289.21C459.869 290.023 458.353 290.424 456.82 290.36C455.284 290.448 453.76 290.053 452.46 289.23V289.23Z" fill="white"/>
<path d="M468 275.46V290.11H465.47V269H466.47L475.47 283.61V269H478V290.09H477L468 275.46Z" fill="white"/>
<path d="M480.63 290.11V269H483.16V290.09L480.63 290.11Z" fill="white"/>
<path d="M497.87 285.63C497.884 286.291 497.751 286.947 497.48 287.55C497.162 288.134 496.709 288.635 496.16 289.01V289.01C494.862 289.809 493.352 290.193 491.83 290.11H485.77V269H491.83C493.374 268.927 494.902 269.34 496.2 270.18C496.744 270.566 497.182 271.082 497.476 271.682C497.769 272.281 497.908 272.944 497.88 273.61L497.87 285.63ZM495.35 285.63V273.63C495.386 273.151 495.307 272.67 495.119 272.228C494.932 271.786 494.64 271.396 494.27 271.09V271.09C493.549 270.634 492.701 270.42 491.85 270.48H488.32V288.71H491.85C492.706 288.778 493.562 288.579 494.3 288.14C494.675 287.847 494.969 287.462 495.153 287.022C495.337 286.583 495.405 286.103 495.35 285.63V285.63Z" fill="white"/>
<path d="M510.9 290.11L510.04 286.42H502.83L501.98 290.11H499.46L504.93 269H507.93L513.4 290.09L510.9 290.11ZM503.15 285H509.73L506.43 270.51L503.15 285Z" fill="white"/>
<path d="M528.13 285.63C528.144 286.291 528.011 286.947 527.74 287.55C527.426 288.134 526.977 288.634 526.43 289.01V289.01C525.136 289.808 523.628 290.192 522.11 290.11H516V269H522.06C523.604 268.929 525.132 269.342 526.43 270.18C526.972 270.567 527.409 271.084 527.7 271.683C527.992 272.282 528.129 272.944 528.1 273.61L528.13 285.63ZM525.62 285.63V273.63C525.655 273.15 525.575 272.669 525.385 272.227C525.195 271.785 524.902 271.395 524.53 271.09C523.812 270.636 522.968 270.422 522.12 270.48H518.59V288.71H522.12C522.973 288.778 523.826 288.579 524.56 288.14C524.937 287.847 525.232 287.463 525.417 287.023C525.603 286.584 525.673 286.104 525.62 285.63Z" fill="white"/>
<path d="M541 288.68V290.11H530.7V269H541V270.43H533.21V278.53H538.58V280H533.21V288.7L541 288.68Z" fill="white"/>
<path d="M562.38 285.63C562.391 286.292 562.254 286.948 561.98 287.55C561.669 288.136 561.219 288.637 560.67 289.01V289.01C559.376 289.808 557.868 290.192 556.35 290.11H550.29V269H556.35C557.894 268.929 559.421 269.342 560.72 270.18C561.264 270.566 561.702 271.082 561.996 271.682C562.289 272.281 562.428 272.944 562.4 273.61L562.38 285.63ZM559.86 285.63V273.63C559.895 273.15 559.815 272.669 559.625 272.227C559.435 271.785 559.142 271.395 558.77 271.09C558.052 270.636 557.208 270.422 556.36 270.48H552.8V288.71H556.33C557.183 288.778 558.036 288.579 558.77 288.14C559.153 287.852 559.456 287.469 559.647 287.029C559.838 286.589 559.911 286.107 559.86 285.63Z" fill="white"/>
<path d="M575.28 288.68V290.11H565V269H575.3V270.43H567.5V278.53H572.86V280H567.5V288.7L575.28 288.68Z" fill="white"/>
<path d="M586.37 290.11H583.37L577.88 269H580.38L584.87 288.66L589.34 269H591.84L586.37 290.11Z" fill="white"/>
<path d="M604.75 288.68V290.11H594.45V269H604.75V270.43H597V278.53H602.37V280H597V288.7L604.75 288.68Z" fill="white"/>
<path d="M617.65 288.68V290.11H607.35V269H609.87V288.66L617.65 288.68Z" fill="white"/>
<path d="M631.07 273.37V285.75C631.098 286.426 630.957 287.098 630.66 287.705C630.364 288.313 629.92 288.837 629.37 289.23C628.042 289.984 626.542 290.38 625.015 290.38C623.488 290.38 621.988 289.984 620.66 289.23C620.107 288.839 619.661 288.315 619.363 287.707C619.064 287.1 618.922 286.427 618.95 285.75V273.37C618.923 272.695 619.065 272.024 619.364 271.418C619.663 270.812 620.108 270.29 620.66 269.9C621.99 269.153 623.49 268.76 625.015 268.76C626.54 268.76 628.04 269.153 629.37 269.9C629.919 270.292 630.361 270.815 630.658 271.42C630.955 272.026 631.096 272.696 631.07 273.37V273.37ZM628.54 285.75V273.37C628.585 272.883 628.507 272.392 628.313 271.943C628.119 271.494 627.815 271.101 627.43 270.8C626.711 270.34 625.861 270.126 625.01 270.19C624.156 270.136 623.307 270.349 622.58 270.8C622.202 271.107 621.904 271.501 621.712 271.949C621.521 272.397 621.441 272.885 621.48 273.37V285.75C621.442 286.239 621.524 286.73 621.719 287.179C621.914 287.629 622.217 288.024 622.6 288.33C623.321 288.778 624.163 288.991 625.01 288.94C625.861 289 626.709 288.786 627.43 288.33C627.816 288.027 628.12 287.632 628.314 287.182C628.508 286.731 628.586 286.239 628.54 285.75V285.75Z" fill="white"/>
<path d="M645.8 276.16C645.838 276.835 645.7 277.509 645.4 278.115C645.101 278.721 644.649 279.24 644.09 279.62C642.797 280.452 641.276 280.858 639.74 280.78H636.21V290.11H633.68V269H639.74C641.284 268.929 642.812 269.342 644.11 270.18C644.66 270.561 645.103 271.076 645.399 271.676C645.695 272.276 645.833 272.942 645.8 273.61V276.16ZM643.27 276.16V273.63C643.305 273.15 643.225 272.669 643.035 272.227C642.845 271.785 642.552 271.395 642.18 271.09C641.462 270.636 640.618 270.422 639.77 270.48H636.24V279.38H639.77C640.617 279.431 641.459 279.218 642.18 278.77C642.562 278.458 642.862 278.057 643.052 277.602C643.242 277.146 643.317 276.651 643.27 276.16Z" fill="white"/>
<path d="M658.7 288.68V290.11H648.4V269H658.7V270.43H650.92V278.53H656.29V280H650.92V288.7L658.7 288.68Z" fill="white"/>
<path d="M671.74 270.2C672.29 270.581 672.733 271.096 673.029 271.696C673.325 272.296 673.463 272.962 673.43 273.63V276.13C673.462 276.802 673.324 277.472 673.029 278.077C672.733 278.682 672.29 279.202 671.74 279.59C671.582 279.719 671.407 279.827 671.22 279.91L670.43 280.31L673.02 290.08H670.48L668 280.75H663.88V290.11H661.35V269H667.41C668.948 268.927 670.47 269.34 671.76 270.18L671.74 270.2ZM670.9 276.13V273.63C670.935 273.15 670.855 272.669 670.665 272.227C670.475 271.785 670.182 271.395 669.81 271.09C669.092 270.636 668.248 270.422 667.4 270.48H663.87V279.35H667.4C668.249 279.405 669.093 279.188 669.81 278.73C670.196 278.423 670.498 278.024 670.688 277.57C670.879 277.115 670.952 276.62 670.9 276.13Z" fill="white"/>
<path d="M686.45 269.9C687.002 270.29 687.447 270.812 687.746 271.418C688.045 272.024 688.187 272.695 688.16 273.37V274.28H685.62V273.37C685.665 272.883 685.587 272.392 685.393 271.943C685.199 271.494 684.895 271.101 684.51 270.8C683.791 270.34 682.941 270.126 682.09 270.19C681.242 270.132 680.398 270.346 679.68 270.8C679.298 271.105 678.997 271.498 678.801 271.946C678.606 272.394 678.523 272.883 678.56 273.37V273.94C678.571 274.302 678.624 274.661 678.72 275.01C678.849 275.458 679.059 275.878 679.34 276.25C679.705 276.73 680.148 277.146 680.65 277.48C681.242 277.817 681.856 278.111 682.49 278.36C683.502 278.742 684.476 279.217 685.4 279.78C686.199 280.231 686.869 280.88 687.345 281.665C687.821 282.449 688.088 283.343 688.12 284.26V285.72C688.148 286.397 688.006 287.07 687.707 287.677C687.409 288.285 686.963 288.809 686.41 289.2C685.082 289.954 683.582 290.35 682.055 290.35C680.528 290.35 679.028 289.954 677.7 289.2C677.147 288.809 676.701 288.285 676.403 287.677C676.104 287.07 675.962 286.397 675.99 285.72V283.82H678.52V285.72C678.482 286.209 678.564 286.7 678.759 287.149C678.954 287.599 679.257 287.994 679.64 288.3C680.361 288.748 681.203 288.961 682.05 288.91C682.901 288.97 683.749 288.756 684.47 288.3C684.856 287.997 685.16 287.602 685.354 287.152C685.548 286.701 685.626 286.209 685.58 285.72V284.26C685.574 283.898 685.521 283.538 685.42 283.19C685.297 282.74 685.094 282.317 684.82 281.94C684.456 281.453 684.013 281.031 683.51 280.69V280.69C683.42 280.63 683.24 280.53 682.95 280.38C682.66 280.23 682.19 280.02 681.51 279.72C680.545 279.343 679.612 278.888 678.72 278.36C677.91 277.817 677.227 277.103 676.72 276.27C676.276 275.567 676.044 274.751 676.05 273.92V273.35C676.023 272.675 676.165 272.004 676.464 271.398C676.763 270.792 677.208 270.27 677.76 269.88C679.09 269.133 680.59 268.74 682.115 268.74C683.64 268.74 685.14 269.133 686.47 269.88L686.45 269.9Z" fill="white"/>
<path d="M709.51 276.16C709.548 276.835 709.41 277.509 709.11 278.115C708.811 278.721 708.359 279.24 707.8 279.62C706.507 280.452 704.986 280.858 703.45 280.78H699.92V290.11H697.38V269H703.45C704.991 268.927 706.516 269.34 707.81 270.18C708.358 270.564 708.8 271.079 709.097 271.678C709.394 272.278 709.536 272.942 709.51 273.61V276.16ZM706.97 276.16V273.63C707.006 273.151 706.927 272.67 706.739 272.228C706.552 271.786 706.26 271.396 705.89 271.09V271.09C705.172 270.636 704.328 270.422 703.48 270.48H699.95V279.38H703.48C704.327 279.431 705.169 279.218 705.89 278.77C706.276 278.46 706.579 278.06 706.773 277.604C706.967 277.149 707.045 276.653 707 276.16H706.97Z" fill="white"/>
<path d="M724.23 273.37V285.75C724.258 286.426 724.117 287.098 723.821 287.705C723.524 288.313 723.08 288.837 722.53 289.23C721.202 289.984 719.702 290.38 718.175 290.38C716.648 290.38 715.148 289.984 713.82 289.23C713.267 288.839 712.821 288.315 712.523 287.707C712.224 287.1 712.082 286.427 712.11 285.75V273.37C712.083 272.695 712.225 272.024 712.524 271.418C712.823 270.812 713.268 270.29 713.82 269.9C715.15 269.153 716.65 268.76 718.175 268.76C719.7 268.76 721.2 269.153 722.53 269.9C723.079 270.292 723.521 270.815 723.818 271.42C724.115 272.026 724.256 272.696 724.23 273.37V273.37ZM721.7 285.75V273.37C721.745 272.883 721.667 272.392 721.473 271.943C721.279 271.494 720.976 271.101 720.59 270.8C719.871 270.34 719.021 270.126 718.17 270.19C717.316 270.136 716.467 270.349 715.74 270.8C715.362 271.107 715.064 271.501 714.872 271.949C714.681 272.397 714.601 272.885 714.64 273.37V285.75C714.602 286.239 714.684 286.73 714.879 287.179C715.074 287.629 715.377 288.024 715.76 288.33C716.481 288.778 717.323 288.991 718.17 288.94C719.021 289 719.869 288.786 720.59 288.33C720.976 288.027 721.28 287.632 721.474 287.182C721.668 286.731 721.746 286.239 721.7 285.75V285.75Z" fill="white"/>
<path d="M737.27 270.2C737.82 270.581 738.263 271.096 738.559 271.696C738.855 272.296 738.993 272.962 738.96 273.63V276.13C738.992 276.802 738.854 277.472 738.559 278.077C738.263 278.682 737.82 279.202 737.27 279.59C737.112 279.719 736.937 279.827 736.75 279.91L735.96 280.31L738.55 290.08H736L733.53 280.72H729.41V290.08H726.88V269H732.94C734.478 268.927 736 269.34 737.29 270.18L737.27 270.2ZM736.43 276.13V273.63C736.465 273.15 736.385 272.669 736.195 272.227C736.005 271.785 735.712 271.395 735.34 271.09C734.622 270.636 733.778 270.422 732.93 270.48H729.4V279.35H732.93C733.779 279.405 734.623 279.188 735.34 278.73C735.726 278.423 736.028 278.024 736.218 277.57C736.409 277.115 736.482 276.62 736.43 276.13Z" fill="white"/>
<path d="M740.12 270.45V269H752.33V270.43H747.48V290.09H745V270.45H740.12Z" fill="white"/>
<path d="M756.64 289.23C756.087 288.839 755.641 288.315 755.343 287.707C755.044 287.1 754.902 286.427 754.93 285.75V269H757.46V285.73C757.416 286.215 757.49 286.703 757.676 287.152C757.863 287.602 758.156 287.999 758.53 288.31C759.268 288.761 760.127 288.974 760.99 288.92C761.84 288.971 762.686 288.758 763.41 288.31C763.791 288.003 764.092 287.608 764.286 287.158C764.479 286.708 764.56 286.218 764.52 285.73V269H767.05V285.73C767.067 286.404 766.921 287.072 766.625 287.678C766.329 288.283 765.892 288.809 765.35 289.21C764.046 290.024 762.526 290.425 760.99 290.36C759.458 290.447 757.936 290.052 756.64 289.23V289.23Z" fill="white"/>
<path d="M780.07 269.9C780.622 270.29 781.067 270.812 781.366 271.418C781.665 272.024 781.807 272.695 781.78 273.37V274.37H779.25V273.37C779.293 272.887 779.217 272.401 779.031 271.953C778.845 271.506 778.553 271.11 778.18 270.8C777.427 270.399 776.588 270.189 775.735 270.189C774.882 270.189 774.043 270.399 773.29 270.8C772.912 271.107 772.614 271.501 772.422 271.949C772.231 272.397 772.151 272.885 772.19 273.37V285.75C772.15 286.238 772.231 286.728 772.424 287.178C772.618 287.628 772.918 288.023 773.3 288.33C774.024 288.778 774.87 288.991 775.72 288.94C776.583 288.994 777.442 288.781 778.18 288.33C778.554 288.019 778.847 287.622 779.034 287.172C779.22 286.723 779.294 286.235 779.25 285.75V280.29H776.87V278.84H781.78V285.75C781.808 286.427 781.666 287.1 781.367 287.707C781.069 288.315 780.623 288.839 780.07 289.23C778.776 290.059 777.255 290.461 775.72 290.38C774.184 290.445 772.664 290.044 771.36 289.23C770.815 288.832 770.375 288.307 770.079 287.7C769.783 287.094 769.639 286.425 769.66 285.75V273.37C769.642 272.697 769.788 272.03 770.084 271.426C770.38 270.822 770.818 270.298 771.36 269.9C772.667 269.094 774.185 268.697 775.72 268.76C777.253 268.681 778.773 269.079 780.07 269.9V269.9Z" fill="white"/>
<path d="M786.09 289.23C785.537 288.839 785.091 288.315 784.793 287.707C784.494 287.1 784.352 286.427 784.38 285.75V269H786.91V285.73C786.866 286.215 786.94 286.703 787.126 287.152C787.313 287.602 787.606 287.999 787.98 288.31C788.718 288.761 789.577 288.974 790.44 288.92C791.29 288.971 792.136 288.758 792.86 288.31C793.241 288.003 793.542 287.608 793.736 287.158C793.929 286.708 794.01 286.218 793.97 285.73V269H796.5V285.73C796.519 286.404 796.375 287.073 796.079 287.679C795.782 288.285 795.344 288.811 794.8 289.21C793.496 290.024 791.976 290.425 790.44 290.36C788.908 290.447 787.386 290.052 786.09 289.23V289.23Z" fill="white"/>
<path d="M809.41 288.68V290.11H799.11V269H809.41V270.43H801.63V278.53H807V280H801.64V288.7L809.41 288.68Z" fill="white"/>
<path d="M821.2 269.9C821.752 270.29 822.197 270.812 822.496 271.418C822.795 272.024 822.937 272.695 822.91 273.37V274.28H820.37V273.37C820.415 272.883 820.337 272.392 820.143 271.943C819.949 271.494 819.645 271.101 819.26 270.8C818.541 270.34 817.691 270.126 816.84 270.19C815.992 270.132 815.148 270.346 814.43 270.8C814.048 271.105 813.747 271.498 813.551 271.946C813.356 272.394 813.273 272.883 813.31 273.37V273.94C813.321 274.302 813.374 274.661 813.47 275.01C813.599 275.458 813.809 275.878 814.09 276.25C814.455 276.73 814.898 277.146 815.4 277.48V277.48C815.992 277.817 816.606 278.111 817.24 278.36C818.252 278.742 819.226 279.217 820.15 279.78C820.949 280.231 821.619 280.88 822.095 281.665C822.571 282.449 822.838 283.343 822.87 284.26V285.72C822.898 286.397 822.756 287.07 822.457 287.677C822.159 288.285 821.713 288.809 821.16 289.2C819.832 289.954 818.332 290.35 816.805 290.35C815.278 290.35 813.778 289.954 812.45 289.2C811.897 288.809 811.451 288.285 811.153 287.677C810.854 287.07 810.712 286.397 810.74 285.72V283.82H813.27V285.72C813.232 286.209 813.314 286.7 813.509 287.149C813.704 287.599 814.007 287.994 814.39 288.3C815.111 288.748 815.953 288.961 816.8 288.91C817.651 288.97 818.499 288.756 819.22 288.3C819.606 287.997 819.91 287.602 820.104 287.152C820.298 286.701 820.376 286.209 820.33 285.72V284.26C820.324 283.898 820.271 283.538 820.17 283.19C820.047 282.74 819.844 282.317 819.57 281.94C819.206 281.453 818.763 281.031 818.26 280.69V280.69C818.17 280.63 817.99 280.53 817.7 280.38C817.41 280.23 816.94 280.02 816.26 279.72C815.295 279.343 814.362 278.888 813.47 278.36C812.66 277.817 811.977 277.103 811.47 276.27C811.026 275.567 810.794 274.751 810.8 273.92V273.35C810.773 272.675 810.915 272.004 811.214 271.398C811.513 270.792 811.958 270.27 812.51 269.88C813.84 269.133 815.34 268.74 816.865 268.74C818.39 268.74 819.89 269.133 821.22 269.88L821.2 269.9Z" fill="white"/>
<path d="M835.81 288.68V290.11H825.51V269H835.81V270.43H828V278.53H833.36V280H828V288.7L835.81 288.68Z" fill="white"/>
<path d="M847.6 269.9C848.152 270.29 848.597 270.812 848.896 271.418C849.195 272.024 849.337 272.695 849.31 273.37V274.28H846.77V273.37C846.815 272.883 846.737 272.392 846.543 271.943C846.349 271.494 846.045 271.101 845.66 270.8C844.941 270.34 844.091 270.126 843.24 270.19C842.392 270.132 841.548 270.346 840.83 270.8C840.448 271.105 840.147 271.498 839.951 271.946C839.756 272.394 839.673 272.883 839.71 273.37V273.94C839.721 274.302 839.774 274.661 839.87 275.01C839.999 275.458 840.209 275.878 840.49 276.25C840.855 276.73 841.298 277.146 841.8 277.48V277.48C842.392 277.817 843.007 278.111 843.64 278.36C844.653 278.739 845.628 279.215 846.55 279.78C847.349 280.231 848.019 280.88 848.495 281.665C848.971 282.449 849.238 283.343 849.27 284.26V285.72C849.298 286.397 849.156 287.07 848.857 287.677C848.559 288.285 848.113 288.809 847.56 289.2C846.232 289.954 844.732 290.35 843.205 290.35C841.678 290.35 840.178 289.954 838.85 289.2C838.297 288.809 837.851 288.285 837.553 287.677C837.254 287.07 837.112 286.397 837.14 285.72V283.82H839.67V285.72C839.632 286.209 839.714 286.7 839.909 287.149C840.104 287.599 840.407 287.994 840.79 288.3C841.511 288.748 842.353 288.961 843.2 288.91C844.051 288.97 844.899 288.756 845.62 288.3C846.006 287.997 846.31 287.602 846.504 287.152C846.698 286.701 846.776 286.209 846.73 285.72V284.26C846.724 283.898 846.671 283.538 846.57 283.19C846.45 282.763 846.257 282.361 846 282C845.637 281.516 845.198 281.093 844.7 280.75C844.61 280.69 844.43 280.59 844.14 280.44C843.85 280.29 843.38 280.08 842.7 279.78C841.735 279.403 840.802 278.948 839.91 278.42C839.1 277.877 838.417 277.163 837.91 276.33C837.466 275.627 837.234 274.811 837.24 273.98V273.41C837.213 272.735 837.355 272.064 837.654 271.458C837.953 270.852 838.398 270.33 838.95 269.94C840.28 269.193 841.78 268.8 843.305 268.8C844.83 268.8 846.33 269.193 847.66 269.94L847.6 269.9Z" fill="white"/>
<defs>
<radialGradient id="paint0_radial" cx="0" cy="0" r="1" gradientUnits="userSpaceOnUse" gradientTransform="translate(142.23 143.74) rotate(180) scale(79.16)">
<stop offset="0.33" stop-color="#326FB6"/>
<stop offset="0.52" stop-color="#2F6DB4"/>
<stop offset="0.68" stop-color="#2466AC"/>
<stop offset="0.83" stop-color="#135BA0"/>
<stop offset="0.94" stop-color="#025094"/>
</radialGradient>
<linearGradient id="paint1_linear" x1="244.42" y1="174.5" x2="42.39" y2="174.5" gradientUnits="userSpaceOnUse">
<stop stop-color="#326FB6"/>
<stop offset="0.05" stop-color="#3A80C2"/>
<stop offset="0.14" stop-color="#4396D1"/>
<stop offset="0.23" stop-color="#4AA5DC"/>
<stop offset="0.34" stop-color="#4EAEE2"/>
<stop offset="0.49" stop-color="#4FB1E4"/>
<stop offset="0.68" stop-color="#4EAFE2"/>
<stop offset="0.79" stop-color="#4AA7DD"/>
<stop offset="0.87" stop-color="#4499D3"/>
<stop offset="0.94" stop-color="#3C86C6"/>
<stop offset="1" stop-color="#326FB6"/>
</linearGradient>
</defs>
</svg>
