<svg width="1339" height="983" viewBox="0 0 1339 983" fill="none" xmlns="http://www.w3.org/2000/svg">
<g clip-path="url(#clip0)">
<path d="M67.9109 690.242C67.9109 690.242 108.569 492.358 160.069 401.027C211.569 309.696 291.53 56.4592 650.675 79.9839C1009.82 103.509 1035.57 229.435 1093.85 369.199C1152.12 508.964 1240.22 488.206 1274.1 561.548C1307.98 634.89 1291.72 652.879 1291.72 652.879L67.9109 690.242Z" fill="#F8F8FF"/>
<path d="M67.9109 690.242C67.9109 690.242 104.503 731.756 100.437 741.443C96.3715 751.129 0.147578 859.066 176.332 895.045C352.517 931.024 1045.06 947.63 1141.28 903.348C1237.51 859.066 1203.62 836.925 1168.39 791.26C1133.15 745.594 1237.51 789.876 1260.55 742.827C1274.49 714.256 1284.96 684.049 1291.72 652.879L67.9109 690.242Z" fill="#F5F5FC"/>
<path d="M1289.2 600.059C1289.2 600.059 1150.77 461.195 750.965 546.99C351.162 632.786 207.503 529.721 147.872 529.721C88.2399 529.721 85.1906 690.588 85.1906 690.588L1291.55 653.114L1294.79 642.639C1295.38 639.447 1295.55 636.19 1295.31 632.952L1294.79 626.587C1294.63 624.674 1294.37 622.772 1294.02 620.886L1289.2 600.059Z" fill="#E9EDFA"/>
<path d="M67.3958 689.744C67.3958 689.744 -84.1365 611.739 67.3958 569.546C67.3958 569.546 133.804 394.357 254.002 546.534C254.002 546.534 364.213 535.02 366.72 610.465C366.72 610.465 390.518 627.071 426.84 630.932C463.161 634.793 465.668 665.458 458.146 674.411C450.624 683.364 424.346 685.911 424.346 685.911L67.3958 689.744Z" fill="#BAC6F2"/>
<path d="M1209.87 655.481L1209.75 314.663C1209.75 314.663 1049.31 301.711 1073.03 199.116C1088.64 131.544 1141.44 126.231 1140.17 90.5977C1139.25 64.8589 1162.17 -40.5317 1231.42 16.8824C1286.13 62.2435 1260.42 99.6478 1288.68 104.962C1317.62 110.4 1352.92 160.092 1333.3 189.235C1313.67 218.378 1335.53 219.458 1335.53 234.029C1335.53 248.601 1347.13 290.973 1288.26 301.836C1229.39 312.698 1217.98 316.255 1217.98 316.255L1222.92 655.412L1209.87 655.481Z" fill="#B1C1F2"/>
<path d="M1171.48 656.823V485.314C1171.48 485.314 1116.17 478.783 1124.34 427.028C1129.76 392.945 1147.92 390.261 1147.49 372.285C1147.18 359.305 1155.08 306.139 1178.94 335.102C1197.81 357.977 1188.95 376.852 1198.68 379.536C1208.65 382.304 1220.82 407.351 1214.06 422.047C1207.3 436.743 1214.83 437.269 1214.83 444.644C1214.83 452.02 1218.9 473.372 1198.57 478.88C1178.24 484.387 1177.7 484.415 1177.7 484.415L1178.02 656.283L1171.48 656.823Z" fill="#B1C1F2"/>
<path d="M1120.63 658.414L1120.79 369.96C1120.79 369.96 1234.78 359.001 1217.94 272.125C1206.84 214.905 1169.32 210.408 1170.23 180.254C1170.88 158.459 1154.6 69.2317 1105.39 117.845C1066.53 156.245 1084.79 187.921 1064.74 192.418C1044.18 197.026 1019.09 239.094 1033.04 263.781C1046.98 288.468 1031.45 289.367 1031.45 301.711C1031.45 314.055 1023.21 349.923 1065.05 359.18C1106.89 368.438 1114.99 371.386 1114.99 371.386L1111.87 658.58L1120.63 658.414Z" fill="#BAC6F2"/>
<path d="M427.111 335.365C444.977 335.365 459.461 320.576 459.461 302.334C459.461 284.091 444.977 269.302 427.111 269.302C409.244 269.302 394.76 284.091 394.76 302.334C394.76 320.576 409.244 335.365 427.111 335.365Z" fill="white"/>
<path d="M317.686 334.562C335.553 334.562 350.037 319.774 350.037 301.531C350.037 283.288 335.553 268.5 317.686 268.5C299.82 268.5 285.336 283.288 285.336 301.531C285.336 319.774 299.82 334.562 317.686 334.562Z" fill="white"/>
<path d="M373.605 344.609C397.669 344.609 417.177 324.69 417.177 300.12C417.177 275.549 397.669 255.63 373.605 255.63C349.541 255.63 330.033 275.549 330.033 300.12C330.033 324.69 349.541 344.609 373.605 344.609Z" fill="white"/>
<path d="M837.241 261.498C855.108 261.498 869.592 246.709 869.592 228.466C869.592 210.223 855.108 195.435 837.241 195.435C819.375 195.435 804.891 210.223 804.891 228.466C804.891 246.709 819.375 261.498 837.241 261.498Z" fill="white"/>
<path d="M893.146 271.558C917.21 271.558 936.718 251.639 936.718 227.069C936.718 202.498 917.21 182.579 893.146 182.579C869.082 182.579 849.574 202.498 849.574 227.069C849.574 251.639 869.082 271.558 893.146 271.558Z" fill="white"/>
</g>
<path d="M882.821 755.883C929.202 755.883 966.8 718.285 966.8 671.904C966.8 625.524 929.202 587.925 882.821 587.925C836.441 587.925 798.842 625.524 798.842 671.904C798.842 718.285 836.441 755.883 882.821 755.883Z" fill="#FF6584"/>
<path d="M502.032 565.641H271.561V574.934H502.032V565.641Z" fill="#3F3D56"/>
<path d="M502.032 586.086H271.561V595.379H502.032V586.086Z" fill="#3F3D56"/>
<path d="M349.624 606.531H271.561V615.824H349.624V606.531Z" fill="#3F3D56"/>
<path d="M883.802 760.096C883.802 819.265 819.049 797.593 739.171 797.593C659.294 797.593 594.541 819.265 594.541 760.096C594.541 700.928 659.294 583.326 739.171 583.326C819.049 583.326 883.802 700.928 883.802 760.096Z" fill="#336EB5"/>
<path d="M1028.03 809.714C1011.28 806.876 995.17 804.438 979.701 802.402L985.816 790.545C983.754 789.829 974.694 796.619 974.694 796.619L982.72 762.202C972.348 763.452 967.075 798.594 967.075 798.594L955.488 786.713L961.098 800.071C920.405 795.151 879.462 792.575 838.473 792.353L843.708 782.205C841.645 781.489 832.586 788.279 832.586 788.279L840.611 753.862C830.24 755.113 824.967 790.255 824.967 790.255L813.38 778.373L819.322 792.521C805.871 792.79 793.595 793.365 782.465 794.126L784.311 790.545C783.003 790.091 778.882 792.655 776.041 794.593C775.222 794.657 774.422 794.723 773.616 794.789L781.215 762.202C772.755 763.222 767.688 786.792 766.108 795.444C764.995 795.548 763.891 795.653 762.807 795.76L754.065 786.796C761.388 775.433 772.108 766.465 772.108 766.465C758.374 770.55 751.169 777.395 747.405 783.776C747.068 751.157 752.492 718.735 763.427 688.001C763.427 688.001 735.038 749.777 738.66 791.244L739.048 797.833C700.326 793.937 666.279 792.417 636.969 792.353L642.203 782.205C640.141 781.489 631.081 788.279 631.081 788.279L639.107 753.862C628.736 755.113 623.463 790.255 623.463 790.255L611.876 778.373L617.817 792.521C594.253 792.91 570.725 794.509 547.325 797.31C552.619 781.501 570.604 766.465 570.604 766.465C556.869 770.55 549.665 777.395 545.9 783.777C545.564 751.157 550.988 718.735 561.922 688.001C561.922 688.001 533.534 749.777 537.156 791.244L537.589 798.607C513.522 802.053 501.422 805.639 501.422 805.639L826.528 809.714C820.858 808.753 815.264 807.841 809.746 806.977L1028.03 809.714ZM754.037 786.839L757.992 796.257C754.805 796.598 751.741 796.95 748.83 797.309C750.13 793.619 751.879 790.103 754.037 786.839V786.839Z" fill="#3F3D56"/>
<path d="M929.828 801.053C929.653 800.766 925.512 793.852 924.076 779.495C922.76 766.323 923.606 744.12 935.121 713.15C956.935 654.478 930.094 607.139 929.82 606.667L931.144 605.899C931.213 606.018 938.139 618.088 942.231 637.307C947.637 662.788 945.668 689.282 936.556 713.683C914.779 772.255 930.969 799.982 931.135 800.256L929.828 801.053Z" fill="#3F3D56"/>
<path d="M921.299 603.222C926.793 603.222 931.247 598.768 931.247 593.274C931.247 587.78 926.793 583.326 921.299 583.326C915.805 583.326 911.351 587.78 911.351 593.274C911.351 598.768 915.805 603.222 921.299 603.222Z" fill="#6C63FF"/>
<path d="M952.674 639.954C958.168 639.954 962.622 635.5 962.622 630.005C962.622 624.511 958.168 620.057 952.674 620.057C947.179 620.057 942.726 624.511 942.726 630.005C942.726 635.5 947.179 639.954 952.674 639.954Z" fill="#3F3D56"/>
<path d="M931.247 664.441C936.741 664.441 941.195 659.987 941.195 654.493C941.195 648.999 936.741 644.545 931.247 644.545C925.753 644.545 921.299 648.999 921.299 654.493C921.299 659.987 925.753 664.441 931.247 664.441Z" fill="#6C63FF"/>
<path d="M957.265 685.103C962.759 685.103 967.213 680.649 967.213 675.155C967.213 669.66 962.759 665.207 957.265 665.207C951.771 665.207 947.317 669.66 947.317 675.155C947.317 680.649 951.771 685.103 957.265 685.103Z" fill="#6C63FF"/>
<path d="M923.594 717.243C929.089 717.243 933.543 712.789 933.543 707.295C933.543 701.801 929.089 697.347 923.594 697.347C918.1 697.347 913.646 701.801 913.646 707.295C913.646 712.789 918.1 717.243 923.594 717.243Z" fill="#3F3D56"/>
<path d="M935.838 801.419C935.838 801.419 925.89 776.932 955.735 758.566L935.838 801.419Z" fill="#3F3D56"/>
<path d="M923.604 800.975C923.604 800.975 919.076 774.935 884.034 775.158L923.604 800.975Z" fill="#3F3D56"/>
<path d="M762.727 376.354C751.815 357.916 730.226 357.056 730.226 357.056C730.226 357.056 709.189 354.366 695.694 382.448C683.115 408.622 665.755 433.894 692.899 440.022L697.802 424.761L700.838 441.158C704.703 441.436 708.58 441.502 712.452 441.356C741.521 440.418 769.205 441.631 768.313 431.2C767.128 417.333 773.227 394.095 762.727 376.354Z" fill="#2F2E41"/>
<path d="M684.074 525.167L681.778 566.49L749.12 573.378L751.415 530.524L728.458 515.985L684.074 525.167Z" fill="#A0616A"/>
<path d="M865.054 615.848C863.034 596.327 782.861 587.465 763.594 585.615L756.389 581.413L754.094 556.925C754.094 556.925 682.926 550.803 677.569 550.038C672.213 549.273 667.621 559.221 667.621 561.516C667.621 563.176 666.62 575.024 662.6 582.047C653.917 589.023 627.446 610.975 627.446 619.292C627.446 629.24 648.49 754.357 648.49 754.357L650.786 780.375L672.213 784.201L670.682 703.086C670.682 703.086 678.335 656.406 667.621 643.397V638.04C667.621 638.04 699.044 629.854 710.119 620.94C713.328 620.251 722.345 618.552 727.326 620.029C728.009 620.431 728.796 620.844 729.672 621.265C729.784 621.366 729.89 621.473 729.988 621.588C729.988 621.588 730.02 621.54 730.075 621.455C744.401 628.161 781.152 636.619 796.182 634.214C807.774 632.445 819.625 634.599 829.852 640.336C821.435 651.05 827.557 681.659 827.557 681.659L828.322 747.47L839.035 760.479H853.575V724.513C853.575 724.513 867.349 638.04 865.054 615.848Z" fill="#2F2E41"/>
<path d="M723.484 426.834C737.431 426.834 748.737 415.528 748.737 401.581C748.737 387.634 737.431 376.328 723.484 376.328C709.537 376.328 698.231 387.634 698.231 401.581C698.231 415.528 709.537 426.834 723.484 426.834Z" fill="#A0616A"/>
<path d="M708.179 417.651C708.179 417.651 712.005 434.486 706.649 436.017C702.411 437.421 698.312 439.214 694.405 441.374L688.283 461.27V481.166L762.511 489.584L764.807 482.697V472.748L756.389 457.444L752.563 453.617C752.563 453.617 735.728 435.252 739.554 417.651H708.179Z" fill="#A0616A"/>
<path d="M774.372 478.488C774.372 478.488 776.668 505.271 774.372 517.515C772.077 529.759 772.842 548.125 772.842 548.125L756.007 545.064V503.741L759.833 481.549L774.372 478.488Z" fill="#A0616A"/>
<path d="M732.868 372.76C741.489 372.76 748.478 365.771 748.478 357.15C748.478 348.529 741.489 341.54 732.868 341.54C724.247 341.54 717.258 348.529 717.258 357.15C717.258 365.771 724.247 372.76 732.868 372.76Z" fill="#2F2E41"/>
<path d="M715.615 353.042C715.615 349.187 717.042 345.468 719.621 342.602C722.2 339.736 725.748 337.926 729.582 337.52C727.405 337.288 725.203 337.517 723.12 338.191C721.037 338.865 719.12 339.97 717.492 341.434C715.864 342.898 714.562 344.688 713.671 346.688C712.779 348.688 712.319 350.853 712.319 353.042C712.319 355.231 712.779 357.396 713.671 359.396C714.562 361.396 715.864 363.186 717.492 364.65C719.12 366.113 721.037 367.218 723.12 367.893C725.203 368.567 727.405 368.796 729.582 368.564C725.748 368.158 722.2 366.348 719.621 363.482C717.042 360.616 715.615 356.897 715.615 353.042V353.042Z" fill="#2F2E41"/>
<path d="M757.903 374.577L736.574 363.404L707.12 367.975L701.026 394.89L716.195 394.306L720.433 384.418V394.143L727.433 393.874L731.496 378.131L734.035 394.89L758.918 394.382L757.903 374.577Z" fill="#2F2E41"/>
<path d="M773.607 573.378H680.248V666.737H773.607V573.378Z" fill="#F2F2F2"/>
<path d="M664.943 465.479L651.169 522.106C651.169 522.106 645.812 534.35 658.056 542.003C670.3 549.655 697.848 559.603 697.848 559.603C697.848 559.603 722.336 593.274 725.397 579.5C728.458 565.725 707.031 548.125 707.031 548.125L669.534 524.402L684.074 484.61L664.943 465.479Z" fill="#A0616A"/>
<path d="M764.424 536.646C764.424 536.646 775.903 535.116 775.138 548.125C774.372 561.134 759.068 562.664 759.068 562.664C759.068 562.664 752.18 591.743 742.232 586.387C732.284 581.03 747.589 551.951 747.589 551.951L760.598 542.003L764.424 536.646Z" fill="#A0616A"/>
<path d="M690.579 460.505L702.822 435.252L678.335 443.669C678.335 443.669 664.56 450.556 663.795 466.626C663.03 482.697 681.396 491.114 681.396 491.114C681.396 491.114 684.457 514.071 682.926 517.132C681.396 520.193 682.926 532.437 682.926 532.437C682.926 532.437 712.388 524.402 726.928 534.35C741.467 544.298 753.328 538.559 753.328 538.559C753.328 538.559 752.563 519.428 758.685 516.367C764.807 513.306 770.164 498.767 764.807 489.584C764.807 489.584 777.051 491.114 776.286 479.636C775.52 468.157 769.398 458.209 759.45 453.617C749.502 449.026 748.402 448.292 748.402 448.292L762.511 474.279V481.166C762.511 481.166 737.535 465.224 712.824 463.895C704.762 463.526 696.845 466.132 690.579 471.218L690.579 471.218V460.505Z" fill="#2F2E41"/>
<path d="M671.022 754.677C671.022 754.677 681.881 759.787 685.075 761.704C688.269 763.62 701.044 759.787 698.489 771.285C695.934 782.783 685.075 793.641 685.075 793.641C685.075 793.641 679.965 799.39 679.965 803.223C679.965 807.055 667.19 836.438 651.86 835.16C636.529 833.883 639.084 818.553 639.084 818.553L642.278 801.945C642.278 801.945 648.666 773.84 649.943 774.479C651.221 775.117 654.415 779.589 654.415 779.589C654.415 779.589 670.384 773.201 671.022 754.677Z" fill="#D0CDE1"/>
<path d="M830.278 735.546C830.278 735.546 819.419 740.656 816.225 742.573C813.031 744.489 800.256 740.656 802.811 752.154C805.366 763.652 816.225 774.51 816.225 774.51C816.225 774.51 821.335 780.259 821.335 784.092C821.335 787.924 834.11 817.307 849.44 816.029C864.77 814.752 862.215 799.422 862.215 799.422L859.022 782.814C859.022 782.814 852.634 754.709 851.357 755.348C850.079 755.986 846.885 760.458 846.885 760.458C846.885 760.458 830.916 754.07 830.278 735.546Z" fill="#D0CDE1"/>
<defs>
<clipPath id="clip0">
<rect width="1339" height="930" fill="white"/>
</clipPath>
</defs>
</svg>
